<?xml version="1.0" encoding="UTF-8"?>
<svg id="Layer_1" data-name="Layer 1" xmlns="http://www.w3.org/2000/svg" viewBox="0 0 571.06 489.47">
  <path d="m494.06,36.26v5.05c0,117.51-.02,235.03.09,352.54,0,3.58-.99,4.29-4.37,4.29-80.06-.1-160.12-.09-240.18-.1-61.87,0-123.75,0-185.62,0-11.06,0-22.12,0-34.21,0C184.89,277.16,339.16,156.96,494.06,36.26Zm-210.26,354.91s0-.07,0-.11c55.36,0,110.71,0,166.07,0,4.34,0,8.7-.15,13.03.17,2.19.16,2.52-.57,2.5-2.41-.07-4.34.03-8.69,0-13.03-.02-2.4,1.03-3.61,3.49-3.6,4.12,0,8.23-.09,12.35-.07,5.86.02,5.86.05,5.85-5.69-.04-28.23-.12-56.47-.12-84.7,0-62.07.03-124.13.12-186.2,0-2.93-.47-3.99-3.78-3.54-11.14,1.51-21.11-1.03-29.09-9.48-1.29-1.37-2.72-3.66-4.08-3.66-1.51,0-3.02,2.15-4.54,3.34-57.77,45.05-115.54,90.1-173.33,135.14-36.96,28.81-73.94,57.59-110.9,86.39-24.25,18.9-48.45,37.86-72.78,56.65-2.42,1.87-2.6,2.68-.21,4.57,5.82,4.59,9.74,10.54,11.53,17.77,2.14,8.64,2.1,8.48,10.96,8.48,57.64-.05,115.29-.03,172.93-.03ZM453.77,76.05c7.92,10.19,18.36,12.9,30.34,11.48,1.71-.2,2.8-.82,2.81-2.7.08-10.83.17-21.67.25-32.5.01-2.01-.94-1.72-2.08-.83-2.07,1.6-4.13,3.23-6.2,4.84-8.41,6.6-16.82,13.2-25.12,19.71ZM50.76,390.8c.28.14.57.41.86.41,14.29-.03,28.59-.11,42.88-.11,2.44,0,2.34-1.21,2.1-3.07-1.13-8.63-5.48-15.31-11.94-20.92-1.72-1.49-2.68-1.7-4.52-.24-9.02,7.19-18.18,14.22-27.27,21.34-.85.66-2.03,1.15-2.11,2.59Zm427.02.3c2.45,0,4.62-.11,6.78.03,1.95.13,2.67-.66,2.63-2.54-.07-3.3-.07-6.6-.03-9.9.02-1.73-.69-2.46-2.46-2.38-2.84.12-5.69.1-8.54.13-6.02.05-6.09.04-6.19,6-.05,2.72-1.6,6.08-.05,7.97,1.8,2.19,5.39.06,7.87.7Z"/>
  <path d="m37.31,436.37c2.29,2.25,4.94,3.13,7.18,4.65,1.42.96,2.88,1.85,4.29,2.82.7.48,1.28,1.31.84,2.04-.64,1.09-1.61.41-2.37-.05-4.97-3.03-9.98-5.99-14.86-9.15-3.18-2.06-3.07-3.4.05-5.55,4.62-3.19,9.72-5.52,14.68-8.1.82-.43,2.04-1.37,2.63-.04.48,1.08-.76,1.79-1.64,2.29-2.39,1.34-4.84,2.56-7.22,3.93-1.75,1-3.56,1.95-4.85,3.41.16.87.69.81,1.1.79,23.99-1.68,48.01-.71,72-.47,38.31.37,76.62.02,114.92.48,53.05.64,106.1,1.17,159.15,1.54,29.73.21,59.46.37,89.19.6,4.34.03,8.68.34,13.02.47.73.02,1.85.26,2.03-.72.15-.77-.65-1.42-1.34-1.85-1.55-.96-3.12-1.9-4.68-2.83-.91-.54-1.43-1.48-.97-2.3.59-1.07,1.63-.46,2.35.07,3.58,2.65,7.54,4.76,10.87,7.76,1.09.98,1.68,1.81.23,3.03-2.97,2.5-5.84,5.12-8.8,7.65-.66.56-1.59,1.43-2.38.53-.85-.98.42-1.62.96-2.2,1.16-1.25,2.51-2.33,3.73-3.53.62-.62,1.52-1.29,1.07-2.3-.41-.93-1.42-.38-2.15-.49-.56-.08-1.14-.01-1.71-.01-35.34-.04-70.68.44-106.01-.24-43.44-.83-86.89-.75-130.33-1.59-36.69-.71-73.41-.05-110.11-.55-31.79-.44-63.58-.21-95.37-.34-1.66,0-3.36-.65-5.5.28Z"/>
  <path d="m526.6,41.12c-2.64,2.16-3.95,4.7-5.38,7.15-.52.88-1.09,1.74-1.69,2.57-.39.54-.92,1.31-1.63.92-.91-.49-.5-1.4-.12-2.09,2.61-4.69,5.22-9.37,7.9-14.02.63-1.09,1.54-2.38,2.9-.89,4.4,4.84,7.22,10.59,10.16,17.28-3.25-1.15-3.94-3.41-5.16-5.16-1.21-1.73-1.62-3.96-3.76-6.06-.65,117.37,3.27,234,2.96,351.03,4.31-2.52,6.11-7.25,10.02-10.01,1.03,1.49.06,2.4-.49,3.22-2.85,4.28-6.1,8.26-9.44,12.18-1.12,1.31-2.02,1.65-3.29.15-3.24-3.84-6.59-7.59-9.84-11.42-.52-.62-1.55-1.56-.49-2.3.7-.49,1.74.14,2.36.85,2.47,2.82,4.92,5.67,7.81,8.41.23-117.17-3.16-234.22-2.82-351.8Z"/>
  <path d="m566.72,228.87c-.12,2.39-.17,4.79-.38,7.17-.21,2.38-.15,4.43,3.09,4.39.79-.01,1.67.24,1.62,1.33-.04.91-.57,1.56-1.5,1.56-3.48,0-3.29,2.26-3.1,4.69.1,1.25.77,3.18-1.21,3.33-1.98.15-2.42-1.63-2.55-3.36-.33-4.64-.35-4.63-5.02-4.64-2.62,0-5.25-.03-7.87-.07-1.13-.02-2.43.13-2.98-1.15-.46-1.08.35-1.98.95-2.77,2.48-3.27,5.13-6.42,7.5-9.76,2.3-3.25,4.34-6.68,6.51-10.03.85-1.32,1.63-3.31,3.43-2.77,1.82.55,1.21,2.7,1.27,4.21.11,2.62.03,5.24.03,7.86.07,0,.13,0,.2,0Zm-4.02-4.24c-.27-.11-.54-.22-.81-.33-3.24,4.59-6.55,9.13-9.68,13.8-1.09,1.63.08,2.2,1.65,2.16,2.27-.05,4.54-.16,6.81-.11,1.45.03,2.05-.49,2.04-1.96-.04-4.52-.01-9.04-.01-13.56Z"/>
  <path d="m234.37,458.23c.27-1.73,1.63-2.42,3.01-2.88,3.35-1.1,6.81-1.13,10.11.07,5.09,1.86,6.03,9.8,1.42,13.39-2.25,1.75-1.99,2.46.09,3.82,3.27,2.13,4.83,5.18,3.94,9.1-.9,3.97-3.63,6.15-7.48,7.17-3.31.88-6.57.64-9.84-.13-1.43-.34-2.87-1.06-2.2-2.76.58-1.47,1.99-.54,2.95-.16,2.87,1.11,5.68,1.42,8.67.39,3.52-1.21,4.61-3.8,4.61-7.16,0-3.44-2.13-5.13-5.11-5.99-1.98-.57-4.03-.8-6.11-.74-.69.02-1.53-.11-1.64-.9-.11-.75.62-1.3,1.24-1.46,1.65-.42,3.33-.79,5.02-.97,3.15-.34,5.81-2.82,5.77-5.55-.05-3.18-2.91-6.05-6.14-6.16-1.74-.06-3.4.3-5.07.74-1.04.27-2.08,1.1-3.26.17Z"/>
  <path d="m503.69,413.4c0-3.65.03-7.31-.02-10.96-.02-1.46.33-2.5,2.02-2.49,2.62.01,5.27-.19,7.84.48,4.93,1.28,6.43,5.06,3.63,9.31-1.28,1.94-1.92,3.19.6,4.98,3.39,2.41,2.23,8.81-1.5,10.74-3.54,1.83-7.36,1.24-11.07,1.44-1.62.09-1.49-1.42-1.5-2.55-.02-3.65,0-7.3,0-10.96Zm2.78,6.52c.29,1.26-1.45,4.88,3.36,4.63,5.13-.26,7.38-1.9,7.26-5.59-.12-3.42-2.38-4.65-7.34-4.91-4.16-.22-3.67,2.24-3.28,5.87Zm3.36-8.45c3.97-.19,6.22-2.18,6.14-5.1-.06-2.35-3-3.98-7.07-3.69-4.48.32-2.32,3.82-2.64,6.02-.48,3.31,1.89,2.92,3.57,2.77Z"/>
  <path d="m11.24,414.12q-5.72,0-7.83,5.1c-.17.42-.33.85-.53,1.26-.45.91-.88,2.18-2.16,1.6-1.28-.58-.56-1.73-.19-2.66,2.01-5.07,3.98-10.15,6.05-15.19,1.07-2.62,1.59-5.44,3.28-7.83,1.48-2.08,2.66-1.57,3.43.34,3.09,7.57,6.06,15.2,9.04,22.81.33.84.66,2.01-.27,2.48-1.17.59-1.78-.58-2.36-1.41-.19-.28-.34-.59-.47-.91q-2.36-5.56-8-5.57Zm-.04-15.66c-1.99,3.6-2.71,7.05-3.95,10.29-.39,1.02-.87,2.57.95,2.53,2.58-.06,5.31,1,7.72-.73.09-.06,0-.44-.08-.65-1.4-3.66-2.03-7.63-4.64-11.45Z"/>
  <path d="m522.7,23.93c-3.64,5.01-13.27,4.41-17.63-2.34-3.24-5.02-3.2-10.22,0-15.13,3.28-5.04,8.33-6.83,14.22-6.4.66.05,1.37.26,1.94.6.77.46,1.67,1.17,1.31,2.15-.34.93-1.42.49-2.12.35-3.18-.63-6.32-1.05-9.3.72-4.85,2.9-7.08,8.91-5.15,13.9,2.03,5.27,7.15,7.82,13.13,6.55,1.09-.23,2.12-.83,3.62-.39Z"/>
</svg>