<?xml version="1.0" encoding="UTF-8"?>
<svg id="Layer_1" data-name="Layer 1" xmlns="http://www.w3.org/2000/svg" viewBox="0 0 230.32 158.31">
  <path d="m210.52,20.99c-.53-.35-.88-.26-1.21-.26-1.84-.01-3.68-.04-5.52.01-.74.02-1.04-.12-1.01-.95.07-1.89-.37-1.66,1.66-1.71,3.11-.09,6.23.25,9.34-.2.54-.08,1.5,1.46,1.21,1.98-.22.39-.25.76-.25,1.16,0,7.41-.14,14.82.04,22.22.69,27.62.19,55.24.36,82.86.02,3.29-.29,6.55-.38,9.83-.02.87-.06,1.74.16,2.61.18.71-.61,1.55-1.33,1.41-1.82-.37-3.66-.28-5.5-.28-36.82-.01-73.64,0-110.46-.01-8.64,0-17.27-.03-25.91-.03-10.22,0-20.44.05-30.66.05-13.09,0-26.18-.03-39.27-.04-.25,0-.5-.03-.75-.01-.68.04-1.09-.08-1.06-.95.02-.88.45-.93,1.12-.93,10.97.02,21.95.02,32.92.06,1.52,0,2.69-.73,3.86-1.48,6.57-4.2,13.04-8.54,19.51-12.88,19.41-13.03,38.9-25.95,58.32-38.97,10.46-7.01,20.84-14.15,31.28-21.19,14.01-9.44,28.06-18.83,42.09-28.25.72-.49,1.44-.99,2.17-1.46.5-.32.66-.53.07-1.01-1.48-1.23-2.19-2.92-2.57-4.76-.09-.43-.11-.89-.27-1.28-.67-1.55-.55-3.09-.16-4.67.28-1.11.24-1.12-.9-1.13-.25,0-.5,0-.75,0-1.96,0-1.94,0-1.86-1.93.02-.46.13-.7.63-.67.4.02.81-.04,1.21,0,1.28.12,2.58-.55,3.73-.36,1.23.21,2.45.29,3.68.36.34.02.69.01,1.03,0,.56-.02.77.21.75.78-.05,2.17.25,1.79-1.74,1.82-.97.01-1.93,0-2.9-.05-.53-.03-.81.18-.94.68-.42,1.57-.89,3.12-.09,4.73.27.54.3,1.21.44,1.81.22.99.63,1.89,1.22,2.71,1.06,1.49,1.47,1.55,2.95.57,5.08-3.33,10.09-6.79,15.27-9.96.11-.07.22-.12.43-.24Zm-68.96,116.8c15.49,0,30.99,0,46.48,0,7.83,0,15.65.01,23.48,0,1.39,0,1.4-.02,1.45-1.36.14-4.06.23-8.12.24-12.18.05-33.84-.02-67.68-.31-101.52,0-1.11-.03-1.15-1.02-.59-2.85,1.62-5.55,3.47-8.28,5.28-9.74,6.47-19.45,12.97-29.16,19.48-8.99,6.02-17.99,12.02-26.93,18.1-12.68,8.63-25.36,17.26-38.12,25.76-9,5.99-17.99,12.02-26.98,18.03-5.31,3.55-10.61,7.12-15.93,10.66-.51.34-.24.5.03.75,1.13,1.03,2.26,2.06,3.39,3.09.57.51.92,1.15,1.26,1.83,1.28,2.63,1.34,5.41,1.15,8.24-.08,1.12-.36,2.15-1.11,3.02-.3.35-.86.74-.67,1.15.21.47.89.26,1.36.26,6.2.02,12.41,0,18.61,0,17.02,0,34.04,0,51.07,0Zm-102.37-.23c.38.27.73.18,1.05.18,8.91,0,17.82-.02,26.74.03,1.01,0,1.61-.24,2.02-1.19.44-1.02,1.43-1.79,1.54-2.96.39-4.28-.17-8.2-3.88-11.09-2.08-1.63-2.16-1.75-4.38-.2-5.96,4.15-12.1,8.02-18.14,12.06-1.62,1.08-3.27,2.1-4.95,3.18Z"/>
  <path d="m209.45,142.7c1.2,0,2.39,0,3.59,0,1.83,0,3.68-.13,5.48.32,1.61.41,2.96,1.18,3.41,2.95.39,1.52-.26,2.96-1.64,3.7-.19.1-.45.13-.47.39-.02.33.29.36.5.47,1.88.96,2.56,1.99,2.39,3.61-.18,1.65-1.34,2.94-3.12,3.46-.78.23-1.57.37-2.39.37-2.58,0-5.16,0-7.76,0,.02-.11.01-.2.03-.2,2.04-.56,1.77-.69,1.81-2.46.09-3.21.07-6.43.03-9.64-.03-2.05-.08-2.05-1.88-2.96Zm6.19,14.55c.47,0,.94.03,1.4,0,1.65-.13,3.04-1.33,3.15-2.68.15-1.88-.85-3.26-2.69-3.7-1.07-.25-2.14-.35-3.24-.33-.6.01-.82.24-.81.85.03,1.22,0,2.43,0,3.65q.01,2.21,2.18,2.22Zm-2.17-10.58h.01c0,.78,0,1.56,0,2.34,0,.47.18.77.72.76.93-.02,1.87.04,2.8-.03,1.51-.12,2.66-1.28,2.76-2.7.11-1.48-.83-2.85-2.24-3.28-1.03-.31-2.08-.27-3.14-.24-.68.02-.94.35-.91,1,.03.72,0,1.43,0,2.15Z"/>
  <path d="m28.05,15.43c1.73-.75,1.75-.75,1.77-2.63.03-3.15.02-6.31.07-9.46.02-1.47-.01-2.83-2-2.93.1-.15.14-.24.17-.23,3.26.11,6.54-.37,9.76.48,3.5.92,5.69,4.29,5.14,7.93-.65,4.27-3.12,6.48-7.91,6.82-2.32.16-4.67.03-7,.03Zm3.91-7.64s0,0,.01,0c0,1.94,0,3.87,0,5.81,0,.39-.05.79.44.9,1.92.43,3.76.4,5.46-.78,3.32-2.31,3.08-8.35,1.28-10.56-1.64-2.01-3.76-2.34-6.14-2.15-.78.06-1.09.34-1.06,1.15.05,1.87.02,3.75.02,5.62Z"/>
  <path d="m176.56,21.69c2.45-.02,4.21,1.5,4.14,3.59-.03,1.1-.6,1.96-1.37,2.68-.42.4-.62.6.06.98,2.52,1.41,2.79,3.97,1.74,6.14-1.05,2.17-3.86,2.99-6.13,1.93-1.01-.48-1.02-.48-1.02.68,0,1.03-.09,2.06-.2,3.08-.09.83-.56,1.11-1.32,1.12-.53.01-.74-.21-.67-.74.6-4.92.15-9.86.32-14.79.02-.56.03-1.13.14-1.68.45-2.1,1.73-2.98,4.3-3Zm-2.58,8.06c0,1.6.08,3.05-.03,4.47-.09,1.13.41,1.72,1.32,2.19,2.12,1.11,3.86.21,4.18-2.17.12-.9.15-1.8-.02-2.7-.17-.89-.6-1.65-1.16-2.31-.44-.52-1.12-.18-1.69-.27-.09-.01-.19,0-.28-.03-.31-.1-.79-.07-.74-.54.04-.38.45-.34.76-.35.09,0,.19,0,.28,0,1.82.03,1.85,0,2.06-1.84.08-.65.09-1.31-.01-1.96-.21-1.28-.96-1.91-2.25-1.93-1.28-.02-2.1.65-2.29,1.98-.27,1.86-.07,3.74-.14,5.44Z"/>
  <path d="m214.11,15.46c.06-.2.07-.29.1-.3,1.55-.49,1.98-1.88,2.51-3.16,1.46-3.55,3.07-7.03,4.35-10.64.19-.52.25-1.37.92-1.36.53,0,.52.82.72,1.29,1.66,3.9,3.32,7.8,4.96,11.71.45,1.07,1.02,1.97,2.35,2.18-.05.07-.1.14-.15.22h-5.5c.01-.1,0-.19.03-.21q1.35-.97.76-2.57-.75-2.02-2.93-2.08c-1.06-.03-2.11-.05-3.17-.07-.18,0-.39-.02-.54.05-.66.3-1.82,3.19-1.59,3.86.23.67,1.01.52,1.52,1.03-1.51.17-2.9-.25-4.33.07Zm7.18-5.75c.49,0,1.08-.01,1.67,0,.63.02.88-.21.62-.84-.61-1.49-1.23-2.98-1.83-4.49-.22-.55-.48-.43-.69-.05-.87,1.58-1.62,3.21-2.18,4.93-.13.41.04.58.46.55.62-.04,1.24-.07,1.96-.11Z"/>
  <path d="m40.49,147.48c-.47-1.44-1.13-2.63-2.28-3.48-2.24-1.67-6-1.12-7.29,1.66-1.16,2.51-1.26,5.16-.52,7.78,1.33,4.65,7.03,4.66,9.32,2.28.27-.28.51-.59.87-.76-.92,1.69-2.33,2.78-4.19,3.17-3.99.83-7.61-1.35-8.72-5.19-1.15-4,.85-8.39,4.41-9.88,1.82-.76,3.62-.79,5.48-.33.78.2,1.57.44,2.36,0,.28-.15.52-.09.53.25.02,1.44,0,2.89,0,4.49Z"/>
  <path d="m221.3,78.44c.52-.63,2.59-1.26,3.16-1.06.34.12.41.46.54.73.28.62.51,1.27.77,1.91.07.17.07.42.28.45.26.05.34-.22.46-.39.39-.56.76-1.14,1.17-1.69.32-.43.7-.79,1.21-.99.91-.35,1.47.05,1.44,1.02-.02.67-.38.85-.99.75-1.83-.3-3.35,1.27-3,3.13.21,1.1.51,2.18.79,3.27.09.34.13.79.6.85.45.06.72-.28,1-.59.19-.21.23-.59.76-.68-.51,1.21-1.31,2.01-2.35,2.5-.71.33-1.12-.27-1.31-.84-.27-.79-.4-1.63-.62-2.44-.07-.25.04-.65-.31-.7-.36-.05-.5.33-.65.59-.58,1.08-1.29,2.05-2.2,2.88-.39.36-.84.54-1.35.52-.45-.02-.75-.25-.89-.69-.11-.33-.06-.63.16-.87.31-.35.71-.26,1.03-.05.79.53,1.33.2,1.81-.45.17-.23.32-.46.52-.66,1.5-1.59,1.45-3.36.64-5.24-.27-.64-.76-.87-1.35-1.01-.39-.1-.79-.14-1.29-.23Z"/>
  <path d="m117.88,20.72c-1.65,0-3.3-.02-4.94.01-.53.01-.69-.16-.68-.69.07-2.31-.37-1.92,1.88-1.94,2.83-.03,5.66.03,8.49,0,.76,0,1.05.21,1.02,1.01-.06,1.75.32,1.6-1.56,1.61-1.4,0-2.8,0-4.2,0Z"/>
  <path d="m99.9,20.72c-1.65,0-3.3-.01-4.95,0-.47,0-.66-.11-.65-.62.06-2.29-.32-1.97,1.88-1.99,2.89-.04,5.79.01,8.68,0,.64,0,.87.2.87.85,0,2.05.12,1.75-1.73,1.77-1.37.01-2.74,0-4.11,0Z"/>
  <path d="m154.46,20.72c-1.59,0-3.17-.04-4.76.02-.71.02-.97-.24-.93-.9,0-.06,0-.12,0-.19q-.05-1.56,1.46-1.55c2.95,0,5.91.04,8.86.01.79,0,1.1.21,1.07,1.05-.06,1.56,0,1.56-1.59,1.56-1.37,0-2.74,0-4.11,0Z"/>
  <path d="m63.95,20.72c-1.62,0-3.23-.03-4.85.02-.68.02-.84-.27-.87-.87-.1-1.79-.1-1.8,1.71-1.79,2.86.02,5.72.05,8.58.03.84,0,1.14.25,1.1,1.12-.07,1.49-.02,1.49-1.47,1.49-1.4,0-2.8,0-4.2,0h0Z"/>
  <path d="m172.37,20.72c-1.62,0-3.24-.02-4.86.01-.61.01-.84-.2-.84-.8.04-2.27-.14-1.81,1.76-1.83,2.9-.03,5.8,0,8.7-.01.68,0,.91.2.88.92-.06,1.71-.02,1.72-1.71,1.72-1.31,0-2.62,0-3.93,0h0Z"/>
  <path d="m46.04,20.73c-1.62,0-3.24-.03-4.85.01-.63.02-.78-.2-.78-.8,0-2.04-.35-1.82,1.81-1.84,2.89-.02,5.79.02,8.68,0,.72,0,.91.26.86.94-.14,1.67-.12,1.68-1.79,1.68-1.31,0-2.61,0-3.92,0Z"/>
  <path d="m82.05,18.13c1.5,0,2.99.02,4.49,0,.68-.01,1.02.18,1,.96-.03,1.63,0,1.64-1.65,1.64-2.77,0-5.55-.02-8.32.02-.76.01-1.11-.21-1.02-.99.02-.18.02-.38-.01-.56-.15-.84.23-1.11,1.03-1.09,1.49.04,2.99.01,4.49.01,0,0,0,0,0,.01Z"/>
  <path d="m136.17,20.73c-1.46,0-2.93-.03-4.39.01-.64.02-.86-.19-.9-.82-.14-1.79-.13-1.83,1.64-1.83,2.71,0,5.41.04,8.12.02.64,0,.86.18.84.85-.06,1.76-.02,1.76-1.76,1.76-1.18,0-2.36,0-3.55,0Z"/>
  <path d="m83.8,131.36c-.02,1.03-.07,1.99-.32,2.94-.19.71-.73.5-1.22.47-.53-.03-.59-.35-.53-.77.67-4.63.24-9.3.36-13.94.03-.96,0-1.92.23-2.88.48-1.9,3.01-2.93,5.17-2.42,1.5.36,2.61,1.21,2.99,2.77.37,1.47-.27,2.65-1.33,3.58-.55.49-.35.6.12.88,2.14,1.27,2.89,3.67,1.87,5.91-.99,2.19-3.23,3.13-5.62,2.36-.56-.18-1.3-.68-1.61-.48-.44.28.05,1.09-.11,1.61Zm.09-8.39c-.06,0-.11,0-.17,0,0,1.56,0,3.12,0,4.68,0,.5.08.95.54,1.21.59.34,1.17.7,1.86.85,1.61.36,2.67-.19,3.17-1.78.62-1.98.26-3.82-.91-5.52-.21-.31-.47-.47-.85-.45-.37.02-.75.02-1.12,0-.36-.02-.89.01-.87-.47.02-.44.55-.43.91-.43.37,0,.75.04,1.11.1.34.06.53-.05.65-.37.48-1.29.69-2.61.19-3.93-.53-1.4-2-1.89-3.31-1.16-.95.53-1.14,1.46-1.18,2.4-.06,1.62-.02,3.24-.02,4.87Z"/>
</svg>