<?xml version="1.0" encoding="UTF-8"?>
<svg id="Layer_1" data-name="Layer 1" xmlns="http://www.w3.org/2000/svg" viewBox="0 0 376.05 336.88">
  <defs>
    <style>
      .cls-1, .cls-2 {
        fill: none;
        stroke: #231f20;
        stroke-miterlimit: 10;
      }

      .cls-3 {
        font-family: Lato-Light, Lato;
        font-size: 18px;
        font-weight: 300;
      }

      .cls-3, .cls-4, .cls-5, .cls-6 {
        fill: #231f20;
      }

      .cls-4 {
        font-family: ArialMT, Arial;
        font-size: 12px;
      }

      .cls-2 {
        stroke-width: .7px;
      }

      .cls-5 {
        font-family: Lato-Black, Lato;
        font-size: 20px;
        font-weight: 800;
      }
    </style>
  </defs>
  <text class="cls-3" transform="translate(174.73 258.63)"><tspan x="0" y="0">x m</tspan></text>
  <text class="cls-5" transform="translate(7.58 262.61)"><tspan x="0" y="0">A</tspan></text>
  <text class="cls-5" transform="translate(347.15 262.58)"><tspan x="0" y="0">B</tspan></text>
  <text class="cls-5" transform="translate(348.35 40.99)"><tspan x="0" y="0">C</tspan></text>
  <text class="cls-5" transform="translate(0 17.29)"><tspan x="0" y="0">Bank</tspan></text>
  <rect class="cls-6" x="191.21" y="336.75" width="1.15" height=".12"/>
  <rect class="cls-6" x="193.86" y="336.75" width="1.15" height=".12"/>
  <path class="cls-2" d="m37.92,232.1s9.81,3.83,1.34,10.77"/>
  <text class="cls-4" transform="translate(46.54 240.69)"><tspan x="0" y="0">60</tspan></text>
  <text class="cls-4" transform="translate(59.89 236.7) scale(.58)"><tspan x="0" y="0">o</tspan></text>
  <polyline class="cls-1" points="20.09 40.99 19.46 242.87 347.15 242.87 347.15 40.99 19.46 242.87"/>
  <text class="cls-3" transform="translate(136.6 162.52) rotate(-30)"><tspan x="0" y="0">600 m</tspan></text>
  <rect class="cls-1" x="329.03" y="224.05" width="18.35" height="18.35"/>
  <text class="cls-5" transform="translate(329.03 17.29)"><tspan x="0" y="0">Bank</tspan></text>
</svg>