<?xml version="1.0" encoding="UTF-8"?>
<svg id="Layer_1" data-name="Layer 1" xmlns="http://www.w3.org/2000/svg" viewBox="0 0 452.91 776.83">
  <defs>
    <style>
      .cls-1 {
        stroke-width: 2.26px;
      }

      .cls-1, .cls-2, .cls-3, .cls-4, .cls-5 {
        fill: none;
        stroke: #231f20;
        stroke-miterlimit: 10;
      }

      .cls-2 {
        stroke-width: 2.81px;
      }

      .cls-3 {
        stroke-width: 1.89px;
      }

      .cls-4 {
        stroke-width: 1.93px;
      }

      .cls-6 {
        fill: #231f20;
      }

      .cls-5 {
        stroke-width: 2.83px;
      }
    </style>
  </defs>
  <path class="cls-6" d="m223.22,491.52v-36.86h2.41v15.96c1.16-1.43,2.49-2.58,3.99-3.43s3.17-1.28,5.03-1.28c1.39,0,2.61.22,3.66.66,1.06.44,1.93,1.07,2.62,1.9.69.83,1.21,1.83,1.57,2.99s.53,2.48.53,3.95v16.11h-2.41v-16.11c0-2.36-.54-4.22-1.62-5.56-1.08-1.34-2.74-2.01-4.97-2.01-1.65,0-3.19.43-4.61,1.28-1.42.85-2.69,2.02-3.8,3.51v18.9h-2.41Z"/>
  <path class="cls-6" d="m452.91,733.49h-7.37c-.82,0-1.5-.19-2.04-.58s-.9-.88-1.11-1.48l-2.42-7.15h-15.59l-2.42,7.15c-.19.53-.55,1-1.1,1.42-.54.42-1.21.63-2,.63h-7.43l15.88-41.01h9.74l15.87,41.01Zm-26.34-15.68h11.2l-3.77-11.23c-.24-.71-.53-1.55-.86-2.52-.33-.96-.65-2.01-.97-3.14-.3,1.15-.61,2.21-.93,3.18-.32.98-.62,1.82-.9,2.53l-3.77,11.17Z"/>
  <path class="cls-6" d="m198.61,41.01V0h15.08c2.83,0,5.24.26,7.23.79s3.61,1.27,4.87,2.22c1.26.96,2.17,2.12,2.74,3.49s.86,2.9.86,4.59c0,.92-.13,1.81-.39,2.66-.26.85-.68,1.65-1.24,2.4-.56.75-1.28,1.43-2.17,2.04-.88.61-1.94,1.14-3.18,1.59,2.7.66,4.7,1.72,5.99,3.19s1.94,3.36,1.94,5.67c0,1.75-.34,3.37-1.01,4.87s-1.67,2.81-2.97,3.93c-1.31,1.12-2.91,1.99-4.83,2.62-1.91.63-4.1.94-6.56.94h-16.38Zm9.51-23.76h4.95c1.05,0,2-.07,2.84-.22.85-.15,1.56-.42,2.15-.79.59-.38,1.04-.89,1.35-1.55.31-.66.46-1.48.46-2.48s-.12-1.79-.37-2.43c-.24-.65-.62-1.17-1.12-1.56-.51-.39-1.15-.67-1.93-.84-.78-.17-1.7-.25-2.77-.25h-5.57v10.13Zm0,6.36v10.22h6.7c1.26,0,2.28-.16,3.08-.48s1.42-.73,1.87-1.24.76-1.08.93-1.72c.17-.64.25-1.29.25-1.94,0-.75-.1-1.43-.29-2.03-.2-.6-.54-1.11-1.01-1.52s-1.11-.73-1.9-.96c-.79-.23-1.78-.34-2.98-.34h-6.64Z"/>
  <path class="cls-6" d="m237.85,738.99c0,2.97-.51,5.72-1.53,8.28-1.02,2.55-2.46,4.77-4.32,6.65s-4.1,3.36-6.71,4.43c-2.62,1.07-5.52,1.61-8.71,1.61s-6.1-.54-8.72-1.61-4.87-2.55-6.74-4.43c-1.87-1.89-3.31-4.1-4.33-6.65-1.03-2.55-1.53-5.31-1.53-8.28s.51-5.72,1.53-8.28c1.02-2.55,2.47-4.76,4.33-6.64,1.87-1.88,4.11-3.35,6.74-4.42s5.54-1.61,8.72-1.61,6.09.54,8.71,1.62c2.62,1.08,4.85,2.56,6.71,4.43,1.86,1.88,3.3,4.09,4.32,6.64,1.02,2.55,1.53,5.3,1.53,8.25Zm-9.74,0c0-2.03-.26-3.85-.79-5.48-.52-1.62-1.28-3-2.26-4.12-.99-1.12-2.19-1.99-3.62-2.59-1.43-.6-3.05-.9-4.87-.9s-3.47.3-4.91.9c-1.44.6-2.65,1.46-3.63,2.59-.99,1.13-1.74,2.5-2.27,4.12-.52,1.62-.79,3.45-.79,5.48s.26,3.88.79,5.5c.52,1.62,1.28,3,2.27,4.12.98,1.13,2.19,1.98,3.63,2.58,1.43.59,3.07.89,4.91.89s3.44-.3,4.87-.89,2.63-1.45,3.62-2.58c.98-1.12,1.74-2.5,2.26-4.12.52-1.62.79-3.46.79-5.5Z"/>
  <rect class="cls-6" x="248.01" y="602.18" width="1.15" height=".12"/>
  <rect class="cls-6" x="250.66" y="602.18" width="1.15" height=".12"/>
  <path class="cls-4" d="m210.94,146.61s-10.34,27.6-29.1,3.76"/>
  <g>
    <path class="cls-6" d="m233.39,261.93l-3.59.28c-.32-1.42-.78-2.45-1.36-3.09-.98-1.03-2.18-1.54-3.61-1.54-1.15,0-2.16.32-3.03.96-1.14.83-2.03,2.04-2.69,3.63s-1,3.85-1.02,6.8c.87-1.32,1.93-2.31,3.19-2.95s2.57-.96,3.95-.96c2.41,0,4.45.89,6.14,2.66s2.54,4.06,2.54,6.87c0,1.84-.4,3.56-1.19,5.14-.8,1.58-1.89,2.8-3.28,3.64s-2.97,1.26-4.73,1.26c-3.01,0-5.46-1.11-7.36-3.32s-2.85-5.86-2.85-10.94c0-5.68,1.05-9.81,3.15-12.39,1.83-2.25,4.3-3.37,7.4-3.37,2.31,0,4.21.65,5.68,1.94s2.36,3.09,2.66,5.37Zm-14.73,12.67c0,1.24.26,2.43.79,3.57s1.27,2,2.22,2.6,1.94.89,2.99.89c1.52,0,2.83-.62,3.93-1.84s1.64-2.9,1.64-5.01-.54-3.63-1.62-4.8-2.45-1.75-4.09-1.75-3.01.59-4.15,1.75-1.7,2.7-1.7,4.6Z"/>
    <path class="cls-6" d="m237.49,269.63c0-3.47.36-6.27,1.07-8.39s1.78-3.75,3.19-4.9,3.18-1.72,5.32-1.72c1.58,0,2.96.32,4.15.95s2.17,1.55,2.95,2.75,1.38,2.65,1.82,4.37c.44,1.72.66,4.03.66,6.95,0,3.45-.35,6.23-1.06,8.35s-1.77,3.75-3.18,4.91-3.19,1.73-5.34,1.73c-2.83,0-5.06-1.02-6.68-3.05-1.94-2.45-2.91-6.43-2.91-11.95Zm3.71,0c0,4.83.57,8.03,1.69,9.63s2.52,2.4,4.18,2.4,3.05-.8,4.18-2.41,1.69-4.81,1.69-9.62-.57-8.05-1.69-9.64-2.54-2.39-4.22-2.39-2.98.7-3.97,2.1c-1.24,1.79-1.86,5.1-1.86,9.92Z"/>
    <path class="cls-6" d="m255.77,254.61c0-2.3.64-4,1.92-5.11,1.07-.92,2.37-1.38,3.9-1.38,1.71,0,3.1.56,4.18,1.68,1.08,1.12,1.62,2.66,1.62,4.63,0,1.6-.24,2.85-.72,3.77s-1.18,1.63-2.09,2.13-1.91.76-3,.76c-1.74,0-3.14-.56-4.21-1.67s-1.61-2.72-1.61-4.82Zm2.16,0c0,1.59.35,2.78,1.04,3.57.69.79,1.57,1.19,2.62,1.19s1.91-.4,2.61-1.19c.69-.79,1.04-2,1.04-3.63,0-1.53-.35-2.7-1.05-3.49-.7-.79-1.56-1.19-2.6-1.19s-1.92.39-2.62,1.18c-.69.79-1.04,1.97-1.04,3.56Z"/>
  </g>
  <g>
    <g>
      <rect class="cls-6" x="5.98" y="706.9" width="18.22" height="1.94"/>
      <rect class="cls-6" x="48.03" y="706.9" width="18.22" height="1.94"/>
    </g>
    <g>
      <rect class="cls-6" x="66.25" y="706.9" width="18.22" height="1.94"/>
      <rect class="cls-6" x="108.29" y="706.9" width="18.22" height="1.94"/>
    </g>
    <g>
      <rect class="cls-6" x="126.51" y="706.9" width="18.22" height="1.94"/>
      <rect class="cls-6" x="168.55" y="706.9" width="18.22" height="1.94"/>
    </g>
  </g>
  <polyline class="cls-2" points="190.75 707.87 411.27 707.87 210.61 60.2 210.61 707.87"/>
  <line class="cls-5" x1="1.35" y1="707.87" x2="210.61" y2="60.2"/>
  <path class="cls-3" d="m238.62,148.84s-9.95,27.6-28.01,3.76"/>
  <ellipse class="cls-2" cx="206.4" cy="707.87" rx="204.96" ry="67.55"/>
  <path class="cls-1" d="m382.17,708.5s-17.75-25.45,15.36-37.02"/>
  <g>
    <path class="cls-6" d="m307.78,693.28l3.09-.41c.35,1.75.96,3,1.81,3.77.85.78,1.89,1.16,3.11,1.16,1.45,0,2.67-.5,3.68-1.5,1-1.01,1.5-2.25,1.5-3.74s-.46-2.58-1.39-3.5c-.92-.92-2.1-1.38-3.53-1.38-.58,0-1.31.12-2.18.35l.34-2.71c.21.02.37.04.5.04,1.31,0,2.5-.34,3.55-1.03,1.05-.68,1.58-1.74,1.58-3.17,0-1.13-.38-2.07-1.15-2.81-.76-.75-1.75-1.12-2.96-1.12s-2.2.38-3,1.13c-.8.75-1.31,1.88-1.54,3.39l-3.09-.55c.38-2.07,1.23-3.67,2.57-4.81s3-1.7,4.99-1.7c1.37,0,2.63.29,3.79.88,1.15.59,2.04,1.39,2.65,2.41.61,1.02.91,2.09.91,3.23s-.29,2.08-.87,2.97c-.58.89-1.45,1.6-2.59,2.12,1.48.35,2.64,1.06,3.46,2.13.82,1.08,1.23,2.43,1.23,4.06,0,2.19-.8,4.05-2.4,5.57-1.6,1.53-3.62,2.29-6.07,2.29-2.2,0-4.04-.66-5.49-1.98-1.46-1.31-2.29-3.02-2.5-5.1Z"/>
    <path class="cls-6" d="m327.28,687.52c0-2.97.3-5.36.91-7.17s1.52-3.2,2.72-4.19c1.21-.99,2.72-1.48,4.55-1.48,1.35,0,2.53.27,3.55.81,1.02.55,1.86,1.33,2.52,2.35s1.18,2.26,1.56,3.73c.38,1.47.56,3.45.56,5.94,0,2.95-.3,5.33-.91,7.14-.61,1.81-1.51,3.21-2.72,4.2-1.21.99-2.73,1.49-4.57,1.49-2.42,0-4.32-.87-5.71-2.6-1.66-2.09-2.48-5.5-2.48-10.22Zm3.17,0c0,4.13.48,6.87,1.45,8.24.96,1.36,2.15,2.05,3.57,2.05s2.61-.68,3.57-2.06c.96-1.37,1.45-4.11,1.45-8.22s-.48-6.88-1.45-8.24c-.97-1.36-2.17-2.04-3.61-2.04s-2.55.6-3.4,1.8c-1.06,1.53-1.59,4.36-1.59,8.48Z"/>
    <path class="cls-6" d="m347.53,679.11c0-1.32.47-2.43,1.4-3.36.93-.93,2.05-1.39,3.35-1.39s2.45.46,3.38,1.39c.92.92,1.39,2.04,1.39,3.36s-.47,2.43-1.4,3.37c-.93.93-2.05,1.39-3.37,1.39s-2.42-.46-3.35-1.39c-.93-.92-1.4-2.05-1.4-3.37Zm1.87,0c0,.8.28,1.48.85,2.05.57.56,1.25.85,2.05.85s1.46-.29,2.03-.85c.56-.56.85-1.25.85-2.05s-.28-1.48-.85-2.05c-.57-.57-1.24-.85-2.03-.85s-1.48.28-2.05.85c-.56.56-.85,1.25-.85,2.05Z"/>
  </g>
  <path class="cls-6" d="m220.85,703.19v-47.35h2.38c.54,0,.93.11,1.17.34s.37.6.4,1.14l.38,9.99c1.52-3.84,3.55-6.84,6.09-9.01,2.54-2.17,5.66-3.26,9.38-3.26,1.43,0,2.74.15,3.95.45,1.2.3,2.34.74,3.42,1.31l-.61,3.14c-.1.51-.41.76-.96.76-.19,0-.46-.06-.81-.19-.35-.12-.79-.27-1.31-.43-.52-.15-1.17-.3-1.93-.43-.76-.12-1.64-.19-2.62-.19-3.58,0-6.53,1.12-8.83,3.34-2.3,2.22-4.16,5.42-5.59,9.61v30.79h-4.52Z"/>
  <g>
    <path class="cls-6" d="m169.02,265.08l-3.59.28c-.32-1.42-.78-2.45-1.36-3.09-.98-1.03-2.18-1.54-3.61-1.54-1.15,0-2.16.32-3.03.96-1.14.83-2.03,2.04-2.69,3.63s-1,3.85-1.02,6.8c.87-1.32,1.93-2.31,3.19-2.95s2.57-.96,3.95-.96c2.41,0,4.45.89,6.14,2.66s2.54,4.06,2.54,6.87c0,1.84-.4,3.56-1.19,5.14-.8,1.58-1.89,2.8-3.28,3.64s-2.97,1.26-4.73,1.26c-3.01,0-5.46-1.11-7.36-3.32s-2.85-5.86-2.85-10.94c0-5.68,1.05-9.81,3.15-12.39,1.83-2.25,4.3-3.37,7.4-3.37,2.31,0,4.21.65,5.68,1.94s2.36,3.09,2.66,5.37Zm-14.73,12.67c0,1.24.26,2.43.79,3.57s1.27,2,2.22,2.6,1.94.89,2.99.89c1.52,0,2.83-.62,3.93-1.84s1.64-2.9,1.64-5.01-.54-3.63-1.62-4.8-2.45-1.75-4.09-1.75-3.01.59-4.15,1.75-1.7,2.7-1.7,4.6Z"/>
    <path class="cls-6" d="m173.13,272.78c0-3.47.36-6.27,1.07-8.39s1.78-3.75,3.19-4.9,3.18-1.72,5.32-1.72c1.58,0,2.96.32,4.15.95s2.17,1.55,2.95,2.75,1.38,2.65,1.82,4.37c.44,1.72.66,4.03.66,6.95,0,3.45-.35,6.23-1.06,8.35s-1.77,3.75-3.18,4.91-3.19,1.73-5.34,1.73c-2.83,0-5.06-1.02-6.68-3.05-1.94-2.45-2.91-6.43-2.91-11.95Zm3.71,0c0,4.83.57,8.03,1.69,9.63s2.52,2.4,4.18,2.4,3.05-.8,4.18-2.41,1.69-4.81,1.69-9.62-.57-8.05-1.69-9.64-2.54-2.39-4.22-2.39-2.98.7-3.97,2.1c-1.24,1.79-1.86,5.1-1.86,9.92Z"/>
    <path class="cls-6" d="m191.41,257.76c0-2.3.64-4,1.92-5.11,1.07-.92,2.37-1.38,3.9-1.38,1.71,0,3.1.56,4.18,1.68,1.08,1.12,1.62,2.66,1.62,4.63,0,1.6-.24,2.85-.72,3.77s-1.18,1.63-2.09,2.13-1.91.76-3,.76c-1.74,0-3.14-.56-4.21-1.67s-1.61-2.72-1.61-4.82Zm2.16,0c0,1.59.35,2.78,1.04,3.57.69.79,1.57,1.19,2.62,1.19s1.91-.4,2.61-1.19c.69-.79,1.04-2,1.04-3.63,0-1.53-.35-2.7-1.05-3.49-.7-.79-1.56-1.19-2.6-1.19s-1.92.39-2.62,1.18c-.69.79-1.04,1.97-1.04,3.56Z"/>
  </g>
</svg>