<?xml version="1.0" encoding="UTF-8"?>
<svg id="Layer_1" data-name="Layer 1" xmlns="http://www.w3.org/2000/svg" viewBox="0 0 467.94 243.69">
  <defs>
    <style>
      .cls-1 {
        fill: #231f20;
        font-family: Lato-Regular, Lato;
        font-size: 20px;
      }
    </style>
  </defs>
  <g>
    <path d="m213.21,243.66c-70.04,0-140.09,0-210.13,0-3.03,0-3.02,0-3.02-3.12,0-69.69,0-139.38,0-209.07,0-2.08.09-4.17-.03-6.24-.09-1.59.45-2.2,2.07-2.17,4.17.07,8.35.02,12.52.02,134.62,0,269.23,0,403.85,0,2.02,0,4.04.13,6.04-.03,1.59-.13,1.98.42,1.97,1.91-.05,14.57-.04,29.14-.05,43.71-.01,57.49-.03,114.98.02,172.46,0,2.12-.57,2.57-2.66,2.56-19.94-.08-39.88-.02-59.82-.02-50.25,0-100.49,0-150.74,0h0Zm-.02-2.45h0c20.81-.01,41.61-.01,62.42-.01,48.88,0,97.76,0,146.64.05,1.47,0,2.14-.34,2-1.9-.11-1.21-.05-2.44-.05-3.66,0-62.59,0-125.18,0-187.76,0-6.75-.03-13.49.05-20.24.02-1.5-.43-2.04-1.95-2-2.95.09-5.9.03-8.85.03-107.62,0-215.24.03-322.87,0-28.79,0-57.59.24-86.38-.2-1.55-.02-1.57.62-1.57,1.77.04,15.14.05,30.29.05,45.43.01,54.12.01,108.24.05,162.35,0,1.98-1.03,4.53.3,5.79,1.3,1.23,3.84.32,5.84.32,68.1.03,136.21.02,204.31.02Z"/>
    <path d="m279.98,134.67c1.87,34.01-31.06,66.88-64.13,66.06-37.66,2.45-69.9-30.41-69-68.41.8-33.51,29.88-64.87,66.94-65.04,35.57-.16,68.15,32.39,66.19,67.39Zm-2.75-3.22c-.24-4.42-.48-9.5-1.79-14.47-3.3-12.47-10.28-22.56-19.76-31.16-6.61-5.99-14.04-10.53-22.62-12.9-7.76-2.15-15.67-3.45-23.84-2.78-9.29.76-18.18,2.78-26.32,7.36-10.96,6.17-19.41,14.93-25.73,25.75-3.82,6.55-5.54,13.75-6.67,21.18-1.62,10.55-.73,20.92,2.47,31.01,2.7,8.52,7.48,15.91,13.62,22.45,8.35,8.89,18.19,15.43,30.12,18.33,10.61,2.58,21.38,2.81,32.08.39,16.89-3.81,29.53-13.78,38.96-27.86,7.39-11.02,10.01-23.48,9.49-37.3Z"/>
    <path d="m152.25,138.44c.08-.74.64-.86,1.1-.93,1.3-.21,2.43-.88,3.65-1.25,1-.3,2.5-2.5,3.04.53.07.4.9.26,1.4.26,32.88-.04,65.76-.08,98.64-.12,1.73,0,3.46-.04,5.18.08,1.05.07,1.83.04,1.97-1.25.09-.85.56-1.15,1.33-.63,1.69,1.15,3.58,1.8,5.53,2.33.54.15,1.18.34,1.19,1.06,0,.71-.72.58-1.14.76-1.91.82-3.89,1.47-5.56,2.79-1.04.82-1.56.46-1.49-.82.05-.86.09-1.4-1.19-1.4-26.26.07-52.52.08-78.78.08-8.42,0-16.83-.04-25.25-.1-1.2,0-1.96.22-1.96,1.6,0,.98-.56,1.16-1.22.51-1.35-1.31-3.07-1.81-4.79-2.33-.71-.22-1.33-.5-1.63-1.17Z"/>
  </g>
  <text class="cls-1" transform="translate(198.51 133.36)"><tspan x="0" y="0">1 m</tspan></text>
  <text class="cls-1" transform="translate(436.06 143.18)"><tspan x="0" y="0">2 m</tspan></text>
  <text class="cls-1" transform="translate(200.53 17.16)"><tspan x="0" y="0">3 m</tspan></text>
</svg>