<?xml version="1.0" encoding="UTF-8"?>
<svg id="Layer_1" data-name="Layer 1" xmlns="http://www.w3.org/2000/svg" viewBox="0 0 470.09 496.93">
  <defs>
    <style>
      .cls-1 {
        fill: none;
        stroke: #231f20;
        stroke-miterlimit: 10;
      }

      .cls-2 {
        font-family: Lato-Black, Lato;
        font-weight: 800;
      }

      .cls-2, .cls-3 {
        fill: #231f20;
        font-size: 20px;
      }

      .cls-3 {
        font-family: Lato-Regular, Lato;
      }
    </style>
  </defs>
  <g>
    <path d="m132.87,456.5c-1.66-1.9-2.1-3.97-1.87-6.25.21-2.03-1.33-2.83-2.81-3.7-16.12-9.54-31.01-20.71-44.32-33.92-22.6-22.42-40-48.25-51.38-78.07-7.29-19.1-12.07-38.75-13.46-59.2-.38-5.54-.98-11.07-1-16.64,0-1.59-.62-2.68-1.67-3.81-2.39-2.6-2.47-4.53,0-6.95,1.57-1.55,2.18-3.26,2.33-5.32.71-9.54,1.83-19.01,3.77-28.41,2.68-12.97,6.46-25.56,11.41-37.85,8.7-21.6,20.64-41.22,35.61-59.01,9.32-11.08,19.58-21.22,30.94-30.21,2.36-1.86,3.14-3.75,3.08-6.75-.21-12.01-.08-24.03-.08-36.04,0-1.5.56-3.16-1.16-4.22-.22-.14-.45-.72-.36-.82,2.34-2.68,1.23-5.94,1.57-8.95.08-.72.44-1.27,1.27-1.23,1,.05,1.31.77,1.32,1.6.04,2.11.07,4.23,0,6.34-.07,1.9.59,2.97,2.47,3.78,6.51,2.79,12.96,5.73,19.08,9.35,2.46,1.45,3.26.82,3.42-2.01.09-1.59-.99-4.34,1.56-4.31,2.49.03,1.27,2.78,1.55,4.38.19,1.07-.78,2.46.19,3.15,1.23.87,2.24-.55,3.21-1.14,10.26-6.2,21.09-11.25,32.04-16.06.72-.32,1.74-.75,2.1.08.55,1.26-.85,1.3-1.56,1.62-9.67,4.41-19.32,8.86-28.49,14.26-1.94,1.15-5.29,1.67-5.19,4.03.11,2.55,3.74,2.88,5.62,4.48,1.24,1.05,2.98.36,4.43-.32,18.6-8.69,37.95-14.9,58.25-18.29,12.54-2.1,25.11-3.3,37.81-3.27,1.19,0,2.73.32,2.84-1.45.13-2.17.87-4.53-.48-6.46-.65-.93-1.8.19-2.68.55-2.11.86-4.67,4.11-5.41-1.34-.18-1.36-2.11-.7-3.26-.88-1.08-.17-2.93.64-2.95-1.11-.01-1.39,1.73-1.03,2.77-.99,2.05.07,3.79.02,3.89-2.76.05-1.4,1.08-1.49,2.19-.96,2.2,1.07,4.38,2.16,6.59,3.2,1.71.81,1.77,2.19,1.77,3.88,0,9.43-1.33,8.01,7.96,8.47,16.81.84,33.32,3.48,49.57,7.96,36.7,10.11,68.82,28.28,96.43,54.4,20.46,19.36,36.55,41.87,48.44,67.46,15.21,32.74,21.41,67.15,19.53,103.04-1.1,20.96-5.32,41.36-12.66,61.1-18.68,50.25-51.57,88.55-97.48,115.8-16.86,10.01-34.93,17.3-53.83,22.65-27.54,7.8-55.57,9.81-83.91,7.29-27.45-2.45-53.65-9.78-78.39-22.09-1.67-.83-7.93,1.38-8.48,3.03-.46,1.37.85,1.77,1.61,2.15,6.24,3.12,12.47,6.26,18.81,9.15,5.94,2.71,11.99,5.15,18.24,7.09.52.16,1,.49,1.46.8.44.3,1.08.61.8,1.27-.35.8-1.12.62-1.73.39-4.45-1.68-8.95-3.26-13.32-5.13-7.94-3.39-15.85-6.86-23.38-11.11-1.91-1.07-3.44-1.39-3.4,1.64.01,1.1-.39,2.13-1.66,2.02-1.23-.11-1.38-1.21-1.48-2.27-.36-3.85-.46-3.8-4-1.91-9.58,5.13-19.63,9.22-29.74,13.17-.61.24-1.39.67-1.7-.18-.35-.95.64-1.43,1.27-1.69,3.26-1.37,6.55-2.66,9.86-3.91,6.74-2.55,13.1-5.94,19.6-9.02.85-.41,2.07-.78,2.22-1.85.2-1.41-1.29-1.71-2.15-2.22-9.64-5.75-18.7-12.33-27.53-19.23-.52-.41-1-.88-1.52-1.3-.47-.37-.88-.83-.5-1.38.48-.71,1.17-.48,1.74-.04,1.66,1.3,3.27,2.66,4.93,3.96,8.56,6.73,17.67,12.64,26.95,18.31.58.36,1.16.66,2.5.19ZM22.23,258.66c-.3.19-.6.37-.9.56,2.8,4.92-.29,10.58,2.47,15.58.83,1.5,1.04,3.41-.48,4.98-.65.67-.47,1.75.36,1.94,3.1.74,2.37,3.69,3.4,5.6.45.83.39,1.9-.83,2.09-2.38.36-1.97,2.02-1.74,3.55,1.1,7.36,3.01,14.54,4.92,21.73,4.36,16.39,10.87,31.92,19.18,46.62,19.26,34.05,45.79,61.12,79.32,81.32.76.46,1.44,1.19,2.4.78,1.09-.48.62-1.52.65-2.35.04-1.11-.04-2.23.09-3.33.1-.88.39-1.9,1.53-1.85,1.09.05,1.42,1.06,1.46,1.95.08,1.66.56,3.65-.17,4.92-1.56,2.75,0,3.47,1.96,4.36,1.01.46,2.04.93,2.91,1.6,2.93,2.26,5.36,1.38,8.05-.66,5.12-3.89,10.44-7.52,15.71-11.21.61-.43,1.38-1.72,2.16-.56.58.87-.47,1.62-1.16,2.12-5.14,3.67-10.34,7.26-15.46,10.97-.85.61-2.53.7-2.4,1.97.13,1.28,1.65,1.67,2.76,2.14,7.66,3.24,15.33,6.42,23.21,9.14,16.26,5.62,32.98,9.36,50.04,10.74,23.99,1.94,47.91,1.09,71.6-4.27,26.93-6.1,52.08-16.26,75.03-31.55,44.5-29.66,74.96-69.85,90.06-121.4,4.99-17.05,7.9-34.4,8.16-52.18.09-5.94.07-5.93-5.37-3.11-1.61.84-3.41,2.05-3.64-1.28-.11-1.57-1.42-1.44-2.51-1.57-.85-.1-2.07.13-2.16-1.02-.1-1.32,1.15-1.4,2.15-1.55,1.14-.16,2.34-.43,2.5-1.78.29-2.56,1.44-2.31,3.12-1.19.92.61,2.02.94,2.96,1.52,2.44,1.51,3.07.61,3.02-1.94-.13-7.23-.78-14.4-1.62-21.6-1.82-15.64-5.45-30.85-10.82-45.58-8.65-23.75-20.86-45.61-37.37-64.78-43.4-50.4-98.52-76.85-164.95-79.83-2.89-.13-4.15.6-4.13,3.87.13,22.91.12,45.83,0,68.74-.01,3,1.09,3.87,3.88,3.92,12.41.24,24.58,2.42,36.37,6.07,16.66,5.16,32.07,12.98,45.77,23.89,16.81,13.38,30.34,29.41,39.74,48.92,6.32,13.12,10.7,26.79,12.6,41.16,2.25,16.99,1.42,33.86-2.8,50.62-2.9,11.5-7.04,22.46-12.73,32.76-12.22,22.14-29.33,39.71-51.01,52.78-16.47,9.93-34.3,16.17-53.28,18.94-18.46,2.69-36.75,1.69-54.91-2.91-11.92-3.02-23.1-7.63-34.04-13.15-6.3-3.18-11.28-9.16-19.06-9.29-.19,0-.41-.18-.57-.33-1.52-1.49-3.32-1.6-5.28-1.14-.97.23-2.24.46-2.59-.75-.36-1.25.85-1.62,1.82-1.92,1.29-.4,2.79-1.06.87-2.26-6.89-4.34-11.93-11.33-20.02-13.93-.45-.15-.97-.66-1.11-1.11-.75-2.3-2.69-3.46-4.43-4.81-29.69-23.14-59.37-46.29-89.06-69.43-5.22-4.07-10.44-8.13-15.66-12.19Zm145.67,95.15c2.6,2.49,5.01,4.22,8.16,1.87.48-.36,1.36-.14,1.76.52.39.64.31,1.52-.37,1.72-2.09.61-4.08,2.69-6.22,1.8-3.66-1.52-4.24,2.1-5.54,3.42-1.58,1.61,1.32,2.55,2.52,3.34,20.44,13.44,42.88,21.32,67.26,23.11,29.66,2.17,57.39-4.44,82.88-19.8,28.69-17.3,48.34-42.03,59.07-73.71,4.85-14.3,7.07-29.17,6.55-44.28-.81-23.73-7.19-45.91-19.71-66.21-15.28-24.77-36.49-42.72-63.05-54.32-15.61-6.82-32.1-10.26-49.09-11.28-3.76-.23-4.34.35-4.34,3.98-.08,40.7-.11,81.4-.31,122.11-.02,3.62,2.47,5.67,4.16,7.98,1.3,1.77,3.34-1.22,5.22-1.6.41-.08.74-.51,1.15-.64,1.11-.35,2.17-.16,2.17,1.19,0,2.69,1.18,3.06,3.59,2.54,1.41-.31,3.99-.87,4.03,1.4.02,1.69-2.37.84-3.7,1.01-.64.08-1.32-.1-1.98-.18-1.09-.13-1.75.35-1.79,1.44-.13,3.72-2.17,2.47-4.04,1.57-1.4-.68-2.75-1.44-4.12-2.17-1.62-.86-3.19-.69-4.08.89-1.59,2.84-2.77,1.5-4.07-.15-.75-.95-1.92-1.66-2.08-2.95-.37-2.99-2.32-3.16-4.78-3.16-30.92.06-61.84.15-92.76-.08-4.5-.03-7.69,1.46-10.3,4.63-1.69,2.06-2.44,1.42-3.05-.6-.91-3.02-2.82-4.17-5.99-3.96-3.65.24-7.34.06-11.01.06-5.28,0-6.03.77-5.94,5.92.18,10.85,2.13,21.37,4.97,31.84,3.44,12.65,9,24.26,15.83,35.35.47.77,1.08,2.01,2.31,1.27,3-1.8,3.01.54,2.86,2.22-.26,3.03.88,5.32,2.68,7.6,4.97,6.26,10.59,11.9,16.41,17.34,1.93,1.81,3.68,3.88,6.86,2.32.71-.35,1.95.19,2.88.51,3.66,1.29,4.23.95,4.98-3.83Zm77.6-177.81s.03,0,.04,0c0-13.79,0-27.59,0-41.38,0-3.67-.15-7.35.05-11.01.17-3-1.02-4.08-3.89-3.67-.66.09-1.33,0-2,.04-20.89,1.27-40.73,6.43-59.3,16.18-4.02,2.11-7.87,4.56-11.75,6.93-1.25.76-2.38,1.84-2.35,3.43.03,1.7,1.66,1.88,2.83,2.4.6.27,1.29.35,1.92.57.99.35,2,.86,1.6,2.11-.38,1.16-1.42.81-2.26.5-.63-.24-1.39-.73-1.83-.09-1.85,2.66-3.1.76-4.48-.48-2.39-2.13-4.69-2.03-7.1.09-6.24,5.49-12.11,11.35-17.55,17.62-2.78,3.2-6.17,6.26-5.36,11.3.18,1.11-.51,2.62-1.89,1.94-2.39-1.17-2.86.52-3.74,1.89-7.45,11.56-12.72,24.08-16.2,37.36-1.97,7.53-3.51,15.15-3.95,22.95-.21,3.64,1.21,5.11,4.84,5.13,4.45.02,8.9-.05,13.35.02,3.15.05,4.36-1.71,4.52-4.53.06-1-.04-2,0-3,.05-1.12.06-2.49,1.56-2.5,1.48,0,1.52,1.33,1.61,2.47.46,5.55,2.78,7.62,8.48,7.62,31.48-.03,62.96-.05,94.43-.07,1.44,0,2.93-.15,4.27.49,1.74.82,2.52-.07,2.89-1.57.32-1.31.64-2.87-1.32-3.11-1.52-.19-2.51-1.01-3.13-2.18-.68-1.28-3.57-2.2-1.66-3.88,1.6-1.41,2.46,1.13,3.49,2.1.96.89,1.8,2.48,3.23,1.37,1.32-1.02.23-2.27-.34-3.52-1.01-2.21-2.5-4.77-.49-6.98,1.21-1.34,1.49-2.56,1.49-4.15-.02-17.46-.01-34.93-.01-52.39Zm-84.16-103.27c-1.73.34-2.55-.27-3.33-.84-3.31-2.42-6.61-4.86-9.91-7.3-.98-.73-1.95-1.81-3.23-1.47-3.46.92-6.49,2.82-9.53,4.65-1.61.97-1.08,2.76-1.29,4.26-.11.79-.39,1.57-1.34,1.69-1.01.13-1.27-.63-1.53-1.41-.56-1.72-1.65-1.5-2.85-.73-6.91,4.44-13.9,8.73-20.39,13.79-1.37,1.07-1.95,2.22-1.93,3.94.09,9.67.11,19.34.13,29.01.02,8.12-.02,16.23.01,24.35.01,3,2.86,6-.03,9,0,10.01-.01,20.01,0,30.02,0,2.08.83,2.3,2.42,1.07,3.34-2.58,6.84-4.95,10.08-7.64,4.49-3.72,9.13-7.29,13.58-11.01,3.47-2.9,8.04-5.22,11.94-8.03,5.16-3.72,10.86-6.91,13.3-13.49.81-2.19,3.23-2.58,5.48-2,1.86.48,3.36.07,5-.96,22.86-14.33,47.65-22.46,74.76-22.88,2.58-.04,2.87-1.35,2.87-3.38-.02-23.35-.04-46.7.02-70.04,0-2.25-.67-3.13-3.06-3.14-11.37-.07-22.69.71-33.88,2.54-18.99,3.12-37.49,8.13-55.09,16.11-1.86.84-4.89,1.08-5.06,2.99-.18,2.01,2.93,2.63,4.47,4,2.59,2.3,6.02,3.62,8.37,6.9Zm-57.9,45.53c0-8.67,0-17.35-.01-26.02,0-.83.45-1.94-.59-2.4-1.07-.47-1.54.7-2.14,1.23-4.98,4.43-10.06,8.75-14.81,13.42-23.71,23.33-41.11,50.72-52.37,82-2.82,7.83-4.97,15.88-6.93,23.96-.42,1.75-2.12,4.56,1.84,5.06.99.13,1.13,1.31.67,1.88-1.38,1.71-.67,4.84-3.79,5.4-1.02.19-1.4,1.32-.67,2.12,1.59,1.74,1,3.38.25,5.2-1.15,2.8-2.38,5.55-1.71,8.81.29,1.43-.38,3.05-.64,4.59-.15.88-1.64,1.73-.37,2.58.96.65,1.79-.32,2.6-.93,5.5-4.14,11.02-8.25,16.54-12.36,19.76-14.72,39.53-29.44,59.29-44.16,1.6-1.19,3.01-2.28,2.96-4.77-.19-9.67-.12-19.35-.13-29.02,0-1.88.32-3.78-1.82-4.94-1-.54-.96-1.58.18-2.01,1.99-.77,1.65-2.39,1.66-3.91,0-8.56,0-17.13,0-25.69Zm-40.71,135.02c-11.56,0-23.13-.02-34.69.03-1.56,0-3.71-.76-4.34,1.38-.51,1.75,1.57,2.21,2.6,3.02,14.05,11.04,28.16,22.01,42.26,32.99,19.88,15.48,39.77,30.95,59.64,46.43,1.05.82,2.06,2.08,3.41.83.93-.85.13-1.86-.47-2.66-7.04-9.48-12.68-19.73-17.02-30.72-5.59-14.17-8.88-28.82-9.39-44.07-.16-4.77-2.53-7.22-7.32-7.23-11.56-.02-23.13,0-34.69,0Zm-37.61-4.34c.95,1.25,2.02.91,2.98.91,22.91,0,45.81,0,68.72-.02,4.63,0,6.84-2.25,6.83-6.95-.06-16.35-.13-32.69-.2-49.04,0-.86.37-1.91-.7-2.35-.89-.36-1.33.58-1.93,1.02-19.57,14.6-39.14,29.2-58.72,43.8-5.65,4.21-11.31,8.42-16.98,12.63ZM106.12,62.3c0,5.67,0,11.34,0,17.01,0,.75-.25,1.64.52,2.15.89.6,1.39-.27,1.99-.69,9.82-6.86,19.67-13.65,30.55-18.79,1.76-.83,2.09-1.99,0-3.02-.59-.29-1.14-.67-1.7-1.02-2.53-1.55-3.2-1.21-3.34,1.78-.06,1.26.02,2.77-1.55,2.87-1.73.11-1.62-1.47-1.61-2.69.02-3-1.07-2.91-3.16-1.35-4.89,3.63-9.88,7.13-14.87,10.62-.69.48-1.54,1.9-2.44.66-.57-.78.57-1.61,1.25-2.08,5.47-3.78,10.53-8.13,16.26-11.54.78-.47,2.18-.53,1.88-1.93-.22-1.03-1.16-1.5-2.1-1.95-6.18-2.97-12.14-6.35-18.44-9.11-3-1.32-3.26-.32-3.25,2.09,0,5.67,0,11.34,0,17.01Zm.66,165.79c1.1-.59,1.11-1.53,1.26-2.38,1.53-8.8,4.51-17.13,8.11-25.26,4.05-9.16,9.01-17.78,14.96-25.83.74-1,1.63-2.07.4-3.21-1.01-.94-2.06-.35-2.99.36-6.83,5.13-13.65,10.28-20.5,15.38-1.35,1.01-2.02,2.16-2.01,3.92.06,11.23.02,22.46.04,33.68,0,1.07-.29,2.23.74,3.35Zm28.84,222.68c-1.78.02-1.49,1.3-1.56,2.35-.06.89-.15,2.06,1.15,1.76,1.17-.27,2.9-.59,2.94-2.04.04-1.22-1.36-1.82-2.53-2.07Z"/>
    <path d="m121.87,27.44c-.03.11-.04.22-.1.31-1.01,1.72-3.93-.05-4.61,2.89-.78,3.38-2.79.88-4.26.29-1.43-.57-2.8-1.3-4.21-1.93-.79-.35-1.82-.47-1.69-1.68.1-1.03.91-1.4,1.76-1.77,1.51-.66,3.06-1.29,4.47-2.15,2.03-1.23,3.77-2.38,4.28,1.35.15,1.06,1.46,1.2,2.49,1.23.97.03,1.74.33,1.87,1.45Z"/>
    <path d="m130.96,36.68c.32-1.3-.73-3.99,1.73-3.93,2.04.05,1.32,2.59,1.46,4.15.03.33.02.66,0,.99-.07,1.29.17,3.01-1.74,2.91-1.62-.08-1.4-1.68-1.45-2.88-.01-.33,0-.66,0-1.25Z"/>
    <path d="m134.15,472.96c-.27,1.25.68,3.8-1.5,3.82-2.47.02-1.44-2.61-1.68-4.18-.07-.43-.01-.87,0-1.31.04-1.11.01-2.45,1.47-2.5,1.7-.06,1.66,1.39,1.7,2.61.02.44,0,.88,0,1.56Z"/>
    <path d="m134.19,483.55c-.3,1.44.69,3.98-1.63,3.99-2.33,0-1.54-2.52-1.55-4.03-.01-1.51-.67-3.98,1.68-3.9,1.92.06,1.33,2.41,1.49,3.94Z"/>
    <path d="m130.94,493.55c.13-1.25-.17-2.93,1.48-2.95,2.15-.04,1.72,1.9,1.73,3.24,0,1.28.12,3.17-1.61,3.09-1.94-.09-1.38-2.13-1.6-3.38Z"/>
    <path d="m131.63,28.37c-1.14-.2-2.92.43-2.99-1.25-.09-2.1,1.88-1.31,3.01-1.35,1.08-.03,2.9-.62,2.98,1.07.1,2.02-1.86,1.27-3,1.52Z"/>
    <path d="m144.49,28.37c-1.16-.21-3.07.44-3.06-1.46.01-1.7,1.83-1.18,2.9-1.14,1.14.04,3.08-.7,3.09,1.26,0,1.57-1.76,1.19-2.94,1.35Z"/>
    <path d="m220.67,27.51c-1.07-.29-3.05.49-3.01-1.07.04-1.8,2.07-1.07,3.25-1.1,1.06-.03,2.97-.62,2.86,1.13-.1,1.53-1.98.79-3.1,1.04Z"/>
    <path d="m208.14,27.54c-1.19-.29-3.08.45-3.09-1.14-.01-1.58,1.88-1.1,2.97-1.06,1.17.04,3.19-.64,3.15,1.19-.03,1.35-2.01.72-3.02,1.01Z"/>
    <path d="m195.06,27.73c-1.04-.3-3.03.42-2.76-1.34.24-1.6,2.22-.83,3.43-.88.98-.04,2.78-.49,2.65,1.01-.16,1.83-2.13.89-3.32,1.21Z"/>
    <path d="m182.69,25.31c1.09.51,3.04-.48,2.89,1.35-.12,1.44-1.96,1-3.1,1-1.14,0-3.07.32-2.99-1.11.1-1.81,2.18-.61,3.19-1.24Z"/>
    <path d="m169.98,27.97c-1.2-.27-3.13.51-3.11-1.44.01-1.42,1.73-.98,2.71-.94,1.2.06,3.21-.65,3.38.91.21,1.88-1.87,1.15-2.99,1.46Z"/>
    <path d="m157.04,27.95c-1.15-.21-3.09.32-3.04-1.16.08-2.1,2.2-1.07,3.43-1.19.97-.1,2.7-.49,2.69.96-.02,1.93-1.95,1.13-3.08,1.39Z"/>
    <path d="m132.68,359.75c.89.19,1.42.82,1.35,1.64-.16,1.91,2.7,3.69.16,5.73-1.12.9-1.98,1.23-3.16.17-.46-.41-1.25-.42-1.82-.74-.45-.25-.86-.66-1.17-1.08-.22-.3,4.24-5.76,4.64-5.73Z"/>
    <path d="m134.16,429.12c0,.4.02.62,0,.84-.13,1.36.28,3.4-1.66,3.35-1.89-.05-1.39-2.11-1.54-3.46-.02-.22-.04-.44,0-.66.27-1.47-.78-3.97,1.64-3.92,2.34.05,1.26,2.55,1.56,3.84Z"/>
    <path d="m130.9,374.54c.35-1.45-.58-3.99,1.7-3.93,2.14.05,1.54,2.54,1.52,4.07-.03,1.48.77,3.98-1.61,3.92-2.34-.06-1.23-2.56-1.6-4.05Z"/>
    <path d="m134.16,385.6c0,.52.03.85,0,1.17-.13,1.27.08,3.04-1.71,3-1.52-.03-1.38-1.7-1.48-2.88-.03-.33-.06-.67,0-.98.3-1.55-.9-4.2,1.68-4.18,2.26.02,1.21,2.58,1.51,3.87Z"/>
    <path d="m134.15,396.63c0,.55.01,1.1,0,1.64-.03,1.04-.24,2.13-1.47,2.21-1.5.09-1.67-1.13-1.7-2.28-.03-1.2-.06-2.41.03-3.61.07-.98.18-2.2,1.42-2.27,1.49-.08,1.56,1.26,1.7,2.34.08.65.02,1.31.02,1.97Z"/>
    <path d="m134.15,407.51c-.25,1.28.65,3.89-1.5,3.9-2.45,0-1.44-2.67-1.68-4.27-.06-.44-.01-.89,0-1.33.04-1.15.12-2.45,1.63-2.39,1.47.06,1.52,1.37,1.54,2.52,0,.44,0,.89,0,1.58Z"/>
    <path d="m134.14,418.26c0,.56.03,1.11,0,1.67-.07,1.15-.21,2.41-1.73,2.3-1.29-.09-1.39-1.26-1.41-2.28-.03-1.22-.06-2.45.03-3.66.07-1.01.25-2.22,1.53-2.22,1.25,0,1.47,1.18,1.58,2.2.07.66.01,1.33.02,2Z"/>
    <path d="m130.87,353.14c.38-1.66-.62-4.2,1.62-4.26,2.25-.05,1.65,2.46,1.61,3.98-.03,1.48.77,3.94-1.66,3.9-2.17-.03-1.13-2.43-1.57-3.63Z"/>
    <path d="m87.11,353.92c1.58.75,3.27,1.5,4.91,2.35.6.31.98.93.58,1.66-.39.69-1.14.77-1.73.54-1.62-.63-3.22-1.35-4.77-2.13-.66-.33-.77-1.03-.46-1.71.26-.58.79-.7,1.48-.71Z"/>
    <path d="m32.43,302.54c.91.17,1.62.84,1.78,1.68.31,1.71,2.41,2.78,1.68,4.78-.21.58-.82.63-1.41.45-1.02-.31-3.41-4.73-3.15-5.84.13-.57.38-1.02,1.11-1.07Z"/>
    <path d="m77.23,348.89c1.77,1.06,3.5,2.05,5.17,3.13.25.16.35.8.27,1.17-.14.64-.73.81-1.31.7-2.02-.39-3.66-1.52-5.21-2.79-.47-.38-.43-1.05-.06-1.51.25-.31.71-.44,1.14-.7Z"/>
    <path d="m97.88,358.23c1.65.66,3.8.57,5.07,2.36.14.2-.11,1.02-.35,1.11-2.07.76-3.82-.3-5.57-1.15-.64-.31-1.61-.6-1.29-1.6.3-.92,1.22-.75,2.14-.73Z"/>
    <path d="m64.47,340.74c-.08,1.21-.71,1.64-1.58,1.4-.72-.19-1.51-.56-2-1.09-1.04-1.16-3.09-1.68-2.74-3.79.11-.63.84-.85,1.34-.57,1.92,1.08,3.53,2.56,4.97,4.05Z"/>
    <path d="m50.57,329.07c1.44-.08,5.74,4.31,5.56,5.18-.16.79-.82,1.17-1.46.87-2.12-1.01-3.65-2.69-4.66-4.77-.27-.55.23-1.25.57-1.28Z"/>
    <path d="m37.63,311.85c1.13.01,4.49,4.87,4.05,5.9-.3.69-.96,1.09-1.58.63-1.81-1.34-2.93-3.23-3.63-5.32-.24-.7.36-1.21,1.17-1.21Z"/>
    <path d="m142.47,363.52c1.01,0,1.78-.04,2.54.01.58.04,1.07.32,1.12.97.05.61-.28,1.08-.84,1.26-.73.23-1.49.49-2.24.49-1.5,0-3.92,1.11-4.11-1.15-.22-2.61,2.48-1.04,3.53-1.58Z"/>
    <path d="m119.1,363.08c1.41.15,2.83.26,4.23.47.69.1,1.24.51,1.15,1.32-.09.76-.67,1.21-1.36,1.14-1.84-.19-3.67-.47-5.49-.8-.59-.11-.9-.68-.71-1.27.36-1.11,1.3-.96,2.18-.86Z"/>
    <path d="m48.49,325.77c-.17,1.03-.68,1.83-1.53,1.35-1.87-1.05-3.13-2.82-3.96-4.74-.35-.81.37-1.95,1.53-1.27,1.86,1.08,2.84,3.01,3.96,4.66Z"/>
    <path d="m31.18,298.06c.04.83-.07,1.35-.67,1.62-.58.26-1.08.03-1.51-.34-.25-.21-.57-.49-.6-.77-.19-1.84-1.87-3.31-1.36-5.28.14-.52.96-.82,1.4-.45,1.7,1.4,1.68,3.71,2.73,5.22Z"/>
    <path d="m73.13,347.52c-.11.62-.48.94-1.1,1.01-1.14.13-5.31-2.82-5.49-3.9-.11-.62.1-1.06.73-1.28,1.21-.43,5.96,2.94,5.87,4.16Z"/>
    <path d="m109.2,361.4c.48.08,1.68.26,2.87.51.82.17,1.47.62,1.3,1.6-.2,1.15-1.05,1.35-2.01,1.13-1.18-.28-2.34-.67-3.5-1.02-.74-.22-1.66-.41-1.46-1.44.22-1.15,1.12-1.2,2.79-.77Z"/>
    <path d="m405.11,258.07c-1.27-.44-3.28.65-3.4-1.21-.11-1.86,1.88-1.39,3.08-1.41,1.22-.03,3.12-.48,3.11,1.4,0,1.81-1.92.73-2.79,1.22Z"/>
    <path d="m443.16,258.04c-1.09-.4-3.11.66-3.06-1.33.05-1.79,1.99-1.24,3.2-1.27,1.12-.03,2.89-.37,2.9,1.24.02,2.04-1.95.97-3.04,1.36Z"/>
    <path d="m417.75,258c-1.07-.29-2.92.58-3-1.1-.09-1.93,1.84-1.47,3.05-1.45,1.21.01,3.17-.43,3.02,1.5-.12,1.6-1.98.77-3.07,1.05Z"/>
    <path d="m430.46,258.07c-1.3-.36-3.21.45-3.24-1.18-.03-1.78,1.92-1.42,3.17-1.45,1.16-.03,2.98-.29,2.99,1.25.02,2.12-2.11.74-2.93,1.38Z"/>
    <path d="m392.27,258.02c-.97-.34-2.79.56-2.7-1.38.07-1.4,1.61-1.26,2.68-1.22,1.23.06,3.17-.35,3.09,1.48-.07,1.58-1.94.84-3.07,1.12Z"/>
    <path d="m130.9,265.7c.38-1.47-.68-4.01,1.64-4.01,2.29,0,1.57,2.5,1.57,4,0,1.49.8,3.99-1.55,3.99-2.41,0-1.25-2.53-1.65-3.98Z"/>
    <path d="m175.21,346.49c.71.01,1.48.2,1.59.93.33,2.06-1.55,3.03-2.47,4.46-.6.93-1.5,1.69-2.81.99-.47-.25-1.08-.31-1.19-1.01-.11-.76,4.05-5.37,4.86-5.37Z"/>
    <path d="m134.19,309.14c-.04.88-.04,1.76-.13,2.63-.09.82-.49,1.51-1.41,1.56-1.11.06-1.56-.72-1.61-1.68-.08-1.42-.09-2.85-.04-4.27.04-1,.2-2.18,1.45-2.23,1.49-.06,1.57,1.25,1.68,2.35.05.54,0,1.1,0,1.64.02,0,.03,0,.05,0Z"/>
    <path d="m134.16,320.4c-.19,1.35.56,3.89-1.59,3.9-2.18.02-1.43-2.52-1.6-4.07-.04-.33-.03-.67,0-1,.09-1.28-.21-3.06,1.72-2.96,1.58.08,1.44,1.7,1.47,2.92,0,.33,0,.67,0,1.21Z"/>
    <path d="m131,276.35c0-.66-.06-1.32.01-1.97.1-.92.48-1.83,1.52-1.83,1.02,0,1.5.87,1.56,1.81.08,1.42.1,2.85.02,4.26-.05,1.01-.38,2.16-1.56,2.18-1.22.02-1.46-1.16-1.56-2.16-.08-.76-.02-1.53-.02-2.3h.02Z"/>
    <path d="m131.03,298.32c0-.77-.06-1.55.02-2.32.08-.83.51-1.57,1.4-1.61,1.07-.05,1.58.75,1.65,1.71.09,1.32.11,2.66.04,3.98-.06,1.11-.22,2.51-1.63,2.46-1.4-.04-1.43-1.46-1.53-2.56-.05-.55,0-1.11,0-1.66.02,0,.04,0,.07,0Z"/>
    <path d="m130.96,287.58c0-.65-.04-1.09,0-1.52.13-1.16-.05-2.71,1.69-2.63,1.44.07,1.37,1.47,1.48,2.54.05.43.08.89,0,1.31-.3,1.54.92,4.21-1.72,4.15-2.31-.05-1.11-2.61-1.47-3.85Z"/>
    <path d="m236.34,269.7c-.97,1.73-2.07,3.64-3.91,4.95-.44.32-1.13.29-1.5-.22-.22-.3-.39-.94-.22-1.18,1.13-1.62,2.32-3.21,3.57-4.74.36-.44,1.01-.39,1.54-.11.41.22.68.55.52,1.29Z"/>
    <path d="m210.2,304.45c-1.25,1.76-2.24,3.95-4.25,5.16-.83.5-1.94-.27-1.47-1.38.81-1.93,2.06-3.68,3.77-4.91.77-.56,1.73-.29,1.96,1.14Z"/>
    <path d="m245.49,277.8c-.63,1.59-.67,3.58-2.12,4.94-.46.43-1.26.11-1.39-.39-.48-1.89.27-3.68.79-5.45.25-.84.88-1.65,1.96-1.24.9.34.74,1.24.74,2.14Z"/>
    <path d="m228.63,316.53c-1.16,2.01-2.4,3.8-4.12,5.19-.26.21-1.04-.07-1.5-.3-.42-.2-.56-.73-.26-1.14,1.18-1.58,2.37-3.16,3.64-4.68.34-.41,1.04-.49,1.53-.13.31.22.45.67.7,1.06Z"/>
    <path d="m247.08,267.42c-.36,1.58.08,3.52-1.63,4.71-.41.28-.92.21-1.16-.18-1.05-1.68-.2-3.41-.03-5.11.1-1.06.55-2.06,1.8-1.87,1.38.21,1.05,1.42,1.03,2.46Z"/>
    <path d="m238.81,298.54c-.66,1.19-1.48,2.87-2.5,4.42-.35.54-1.24.49-1.83.06-.5-.36-.59-.94-.31-1.49.75-1.47,1.49-2.96,2.33-4.38.34-.56.98-.94,1.72-.57.56.29.68.83.58,1.95Z"/>
    <path d="m223.34,287.13c-1.31,1.68-2.24,3.91-4.39,4.92-.91.43-1.95-.55-1.38-1.47,1.07-1.74,2.42-3.38,3.92-4.76.71-.65,1.63.05,1.84,1.32Z"/>
    <path d="m216.81,295.85c-1.4,1.63-2.33,3.86-4.3,5.05-.91.55-1.82-.49-1.4-1.45.83-1.89,2.03-3.65,3.76-4.83.8-.55,1.7-.14,1.95,1.22Z"/>
    <path d="m216.85,330.14c-.76-.05-1.54-.6-1-1.43,1.2-1.82,2.55-3.62,4.52-4.69.91-.49,1.42.25,1.5,1.14.09.98-3.85,4.97-5.02,4.97Z"/>
    <path d="m213.12,331.95c.61.07,1.02.35,1.1,1,.01.11.01.22,0,.33-.04.8-4.05,4.67-4.89,4.66-.96-.01-1.39-.55-1.27-1.5.11-.87,4.25-4.52,5.05-4.48Z"/>
    <path d="m202.27,311.64c1.4.33,1.54,1.22,1.01,2.04-.95,1.46-2.07,2.81-3.18,4.16-.47.58-1.15.6-1.78.2-.74-.47-.58-1.15-.17-1.7,1.26-1.71,2.07-3.84,4.11-4.7Z"/>
    <path d="m232.96,306.3c.18.12.52.35.84.59.07.06.09.2.12.3.31,1.01-2.3,5.36-3.42,5.72-.96.3-1.47-.05-1.58-1.04-.11-1.08,2.84-5.42,4.03-5.57Z"/>
    <path d="m182.29,355.52c-.57.05-1.12-.03-1.47-.52-.27-.38-.34-.92.07-1.18,1.84-1.15,3.61-2.53,5.92-2.58.55-.01,1.11.37,1.12.99,0,.35-.27.88-.57,1.04-1.64.87-3.15,2.03-5.07,2.26Z"/>
    <path d="m201.05,344.74c-1.38-.08-1.92-.66-1.4-1.73.27-.55.82-1.07,1.37-1.35,1.49-.76,2.38-2.79,4.46-2.23.5.13.89.92.51,1.38-1.41,1.69-3.25,2.88-4.93,3.94Z"/>
    <path d="m192.46,326.8c-.65-.12-1.39-.51-1.04-1.26.94-1.99,2.13-3.86,4.04-5.06.66-.42,1.22.13,1.37.91.22,1.17-3.17,5.43-4.37,5.41Z"/>
    <path d="m229.97,278.21c-1.25,1.92-2.32,3.84-4.19,5.08-.44.29-1.08.18-1.5-.29-.33-.37-.42-.82-.13-1.2,1.18-1.58,2.37-3.16,3.64-4.67.38-.45,1.07-.35,1.52,0,.31.23.44.69.67,1.09Z"/>
    <path d="m190.24,330.28c.08,1.02-3.25,5.42-4.1,5.39-1.21-.04-1.51-.98-1.11-1.85.78-1.7,1.91-3.23,3.41-4.37,1-.77,1.6-.16,1.8.83Z"/>
    <path d="m183.68,339.41c-1.1,1.85-2.16,3.92-4.13,4.97-1.09.58-1.5-.87-1.16-1.68.72-1.75,1.88-3.29,3.41-4.41,1.01-.74,1.61-.06,1.88,1.13Z"/>
    <path d="m238.64,266.14c-1.2-.1-1.61-.77-1.3-1.59.29-.79.84-1.54,1.43-2.14.98-.99,1.32-3.02,3.33-2.48.73.2.72,1.08.34,1.68-1.07,1.73-1.97,3.62-3.81,4.53Z"/>
    <path d="m196.03,345.5c.81.08,1.1.6,1.11,1.34,0,.21-.05.44-.13.63-.46,1.04-5.08,3.41-5.91,3.04-.58-.26-.78-.75-.7-1.33.11-.75,4.75-3.75,5.63-3.68Z"/>
    <path d="m242.62,287.97c-.78,1.87-.62,4.34-2.98,5.13-.87.29-1.27-.78-1.03-1.6.56-1.95.72-4.27,2.91-5.15.81-.33,1.09.8,1.1,1.61Z"/>
    <path d="m379.41,258.05c-1.09-.44-3.13.74-3.06-1.41.05-1.65,1.85-1.25,2.98-1.2,1.22.06,3.24-.5,3.26,1.29.03,1.99-2.07.86-3.18,1.32Z"/>
    <path d="m277.49,258.03c-1.06-.41-3.09.73-3.14-1.22-.05-1.88,1.93-1.35,3.14-1.36,1.21-.02,3.14-.51,3.05,1.44-.08,1.71-1.92.84-3.05,1.14Z"/>
    <path d="m328.48,258.02c-1.12-.31-3.04.51-3.03-1.18,0-1.79,1.94-1.39,3.2-1.41,1.18-.01,3.01-.2,2.98,1.3-.05,1.93-2.06.91-3.15,1.29Z"/>
    <path d="m354.05,258.02c-1.14-.3-3.03.55-3.05-1.18-.02-1.89,1.93-1.4,3.16-1.4,1.14,0,2.97-.38,2.98,1.25,0,2.11-2.06.86-3.08,1.33Z"/>
    <path d="m366.6,258.04c-1.09-.42-3.15.61-3.08-1.33.06-1.65,2.01-1.25,3.25-1.28,1.16-.03,2.94-.2,2.93,1.28,0,1.96-1.99.94-3.11,1.33Z"/>
    <path d="m341.29,258.09c-1.2-.49-3.22.66-3.22-1.39,0-1.63,1.82-1.25,2.95-1.25,1.22,0,3.15-.5,3.13,1.4-.02,1.81-1.95.71-2.85,1.24Z"/>
    <path d="m315.63,258.04c-1.06-.37-2.97.6-2.93-1.25.04-1.92,1.97-1.33,3.19-1.35,1.13-.01,2.96-.38,2.9,1.31-.07,2.04-2.08.85-3.17,1.29Z"/>
    <path d="m290.36,258.02c-1.06-.36-3.05.65-3-1.37.04-1.53,1.82-1.26,2.96-1.22,1.21.05,3.15-.4,3.07,1.46-.07,1.64-1.93.8-3.04,1.12Z"/>
    <path d="m302.83,258.02c-1.01-.47-3.08.77-3.05-1.33.02-1.54,1.85-1.26,3-1.25,1.24,0,3.18-.43,3.13,1.44-.05,1.66-1.93.86-3.09,1.14Z"/>
    <path d="m169.44,154.29c1.42.49,2.23,1.86,3.19,3.05,2.61,3.22,5.19,6.46,7.73,9.73.48.62,1.51,1.32.37,2.2-.87.66-1.64.31-2.29-.48-3.22-3.9-6.1-8.08-9.65-11.71-.53-.55-.74-1.37-.53-2.18.13-.5.52-.67,1.18-.61Z"/>
    <path d="m131,200.08c0-.66-.04-1.32,0-1.98.07-.93.35-1.86,1.45-1.88,1.27-.03,1.62.96,1.65,2.03.04,1.32.05,2.64,0,3.96-.03,1.03-.22,2.16-1.49,2.2-1.53.06-1.57-1.24-1.65-2.35-.04-.66,0-1.32,0-1.98h.02Z"/>
    <path d="m130.96,232.94c.24-1.33-.66-3.87,1.58-3.88,2.21,0,1.44,2.51,1.6,4.06.03.33.03.66,0,.99-.09,1.3.08,3.06-1.75,2.95-1.51-.09-1.38-1.74-1.44-2.94-.02-.33,0-.66,0-1.18Z"/>
    <path d="m130.94,211.3c.23-1.55-.59-4.04,1.57-4.09,2.19-.04,1.61,2.43,1.61,3.98,0,1.55.6,4.02-1.53,4.06-2.25.04-1.4-2.47-1.65-3.95Z"/>
    <path d="m134.14,222.27c0,.55.03,1.1,0,1.64-.07,1.14-.22,2.37-1.72,2.29-1.27-.07-1.4-1.22-1.43-2.23-.04-1.2-.05-2.41,0-3.62.06-1.1.13-2.39,1.68-2.28,1.27.09,1.38,1.23,1.44,2.23.04.65,0,1.32,0,1.97,0,0,0,0,.01,0Z"/>
    <path d="m134.16,189.59c0,.44.01.88,0,1.33-.04,1.14-.18,2.48-1.53,2.56-1.43.08-1.59-1.27-1.64-2.4-.05-.99-.04-1.99,0-2.98.05-1.21.02-2.75,1.66-2.71,1.34.03,1.48,1.42,1.52,2.56.02.55,0,1.11,0,1.66Z"/>
    <path d="m201.98,193.45c-.18,1.26-.84,1.91-1.82,1.32-1.81-1.09-3.06-2.84-4.06-4.64-.48-.86.42-2.03,1.35-1.57,2.11,1.04,3.11,3.26,4.53,4.89Z"/>
    <path d="m190,180.08c1.18-.08,5.24,4.5,5,5.4-.25.94-1.06,1.26-1.78.79-1.76-1.14-3-2.82-4.02-4.61-.45-.81.14-1.42.8-1.58Z"/>
    <path d="m188.13,176.66c-.19,1.23-.89,1.38-1.72,1.27-.86-.12-1.29-.83-1.67-1.47-.86-1.41-2.98-2.18-2.35-4.35.18-.61.89-.77,1.36-.44,1.92,1.33,3.11,3.29,4.38,5Z"/>
    <path d="m210.23,173.34c-.08.84-.82,1.39-1.54.88-1.68-1.18-3.3-2.5-4.7-3.98-.61-.64-.3-1.74.87-1.96.99-.18,5.4,3.91,5.36,5.06Z"/>
    <path d="m192.48,160.21c-.07.2-.07.51-.21.6-2.44,1.57-3.66-1.11-5.51-1.63-1.13-.32-1.48-1.25-1-2.36.07-.17.32-.3.51-.38.99-.44,6.13,2.7,6.2,3.78Z"/>
    <path d="m236.72,235.73c-.28.41-.45.85-.77,1.08-.61.43-1.28.34-1.78-.23-1.16-1.32-2.31-2.65-3.39-4.04-.37-.47-.25-1.12.26-1.46.32-.21.92-.36,1.19-.2,1.94,1.14,3.07,3.04,4.48,4.84Z"/>
    <path d="m236.6,206.97c0,.74-.26,1.25-.84,1.42-.38.1-.83-.03-1.24-.09-.09-.01-.21-.12-.24-.21-.77-1.99-2.92-3.5-2.15-6,.08-.27.86-.63,1.05-.51,2.06,1.25,2.2,3.72,3.42,5.39Z"/>
    <path d="m225.24,188.43c-.15,1.64-1.06,2.31-1.99,1.48-1.45-1.28-2.59-2.94-3.77-4.5-.35-.46-.13-1.12.39-1.43.34-.21,1.04-.41,1.19-.25,1.48,1.58,2.89,3.23,4.17,4.7Z"/>
    <path d="m229.41,227.19c0,.69-.27,1.15-.81,1.43-.45.23-.88.12-1.19-.24-.87-1.01-1.7-2.05-2.58-3.05-.75-.85-1.8-1.82-.53-2.77,1.18-.88,2.01.35,2.66,1.22.85,1.14,2.06,2.04,2.45,3.42Z"/>
    <path d="m227.35,192.41c1.65.25,1.93,2.05,2.8,3.22.62.83,1.48,1.8.9,3.01-.26.54-.86.66-1.45.46-.68-.23-3.87-5.13-3.7-5.72.17-.6.63-.87,1.46-.96Z"/>
    <path d="m222.48,218.97c-.09.18-.2.63-.47.92-.45.47-.99.39-1.47-.04-.41-.37-.93-.7-1.17-1.16-.73-1.4-2.81-2.09-2.24-4.15.17-.62.68-.78,1.32-.58.8.25,3.96,3.93,4.04,5.01Z"/>
    <path d="m204.13,196.94c.99-.07,4.75,4.33,4.53,5.29-.21.91-.9,1.36-1.71.83-1.68-1.08-2.86-2.68-3.75-4.43-.39-.76.08-1.47.92-1.7Z"/>
    <path d="m213.1,175.75c.99.02,4.97,3.96,4.9,4.79-.1,1.18-1.06,1.69-1.83,1.05-1.5-1.26-2.85-2.75-4.02-4.33-.53-.72.1-1.44.95-1.51Z"/>
    <path d="m215.55,210.19c-.18,1.12-.62,1.99-1.72,1.28-1.67-1.08-2.91-2.68-3.65-4.5-.33-.82.32-2.02,1.41-1.37,1.8,1.07,2.94,2.87,3.95,4.6Z"/>
    <path d="m240.66,216.48c-.03,1.13-.21,2.3-1.09,1.95-2.38-.96-2.32-3.48-2.92-5.52-.21-.69.3-1.62.92-1.4,2.44.86,2.13,3.48,3.09,4.97Z"/>
    <path d="m243.81,226.94c-.18.86.09,2.48-1.06,1.94-2.12-1-2.02-3.46-2.34-5.49-.12-.77.12-2.01.96-1.7,2.46.89,1.91,3.4,2.44,5.26Z"/>
    <path d="m200.3,167.56c-1.82-.93-3.72-2.09-5-3.92-.51-.73.23-1.74,1.1-1.47,2.13.66,3.98,1.94,5.17,3.86.48.77-.02,1.49-1.27,1.53Z"/>
    <path d="m183.08,155.32c-.46.37-.73.71-1.08.86-.9.39-5.78-1.59-6.16-2.53-.14-.34-.12-.98.1-1.18,1.14-1.05,2.28-.16,3.35.23,1.4.51,2.75,1.2,3.79,2.61Z"/>
    <path d="m126.7,146.24c-1.43-.39-4.14,1.03-4.22-.99-.08-2.22,2.77-1.32,4.35-1.51,1.71-.21,3.6.44,4.72-1.56.28-.51.97-.87,1.41-.46,1.79,1.67,4.1,1.49,6.23,1.98.66.15,1.38.48,1.34,1.26-.06,1.01-.98,1.22-1.73,1.13-2.52-.29-4.42-.05-5.21,3.02-.37,1.42-2.19.94-2.31-.38-.31-3.29-2.35-2.88-4.57-2.49Z"/>
    <path d="m134.16,135.04c0,.33.03.66,0,.99-.14,1.25.19,3.02-1.69,2.99-1.63-.03-1.4-1.67-1.49-2.84-.05-.66-.06-1.32,0-1.98.13-1.32-.46-3.37,1.66-3.27,1.99.09,1.39,2.11,1.53,3.45.02.22,0,.44,0,.66Z"/>
    <path d="m134.16,91.26c0,.41.02.64,0,.85-.15,1.35.31,3.41-1.66,3.35-1.91-.06-1.39-2.11-1.54-3.46-.02-.22-.04-.45,0-.66.27-1.46-.77-3.97,1.64-3.92,2.34.05,1.24,2.57,1.56,3.84Z"/>
    <path d="m134.22,156.65c-.34,1.53.65,4.04-1.61,4.1-2.35.07-1.61-2.44-1.6-3.92.01-1.48-.83-3.96,1.47-4.04,2.42-.08,1.35,2.46,1.73,3.86Z"/>
    <path d="m134.16,102.25c-.27,1.37.71,3.93-1.63,3.9-2.29-.03-1.34-2.56-1.56-4.08-.05-.33-.03-.67,0-1,.09-1.2-.06-2.88,1.45-2.95,1.8-.08,1.63,1.7,1.75,3,.03.33,0,.67,0,1.13Z"/>
    <path d="m134.15,80.46c0,.56.02,1.11,0,1.67-.04,1.04-.22,2.19-1.46,2.27-1.53.1-1.66-1.18-1.7-2.32-.04-1.11-.06-2.23.01-3.33.07-1.11.19-2.54,1.59-2.5,1.36.03,1.48,1.43,1.57,2.56.04.55,0,1.11,0,1.67Z"/>
    <path d="m131.01,113.41c0-1.09-.03-1.76,0-2.42.06-.95.38-1.83,1.48-1.86,1.09-.03,1.5.79,1.59,1.75.06.66.14,1.34.06,1.98-.21,1.6.76,4.26-1.71,4.23-2.21-.03-1.16-2.62-1.42-3.69Z"/>
    <path d="m134.03,124.05c0,.92.06,1.59-.01,2.25-.1.94-.49,1.8-1.6,1.74-.9-.05-1.28-.81-1.38-1.63-.08-.66-.14-1.34-.06-1.99.2-1.62-.76-4.32,1.58-4.33,1.98,0,1.06,2.71,1.48,3.96Z"/>
    <path d="m146.76,144.09c1.5.42,3.36-.27,4.54,1.32.34.46.3,1.17-.21,1.49-1.63,1-3.21-.05-4.79-.3-.91-.14-2.37-.13-2.26-1.42.14-1.62,1.71-.85,2.73-1.09Z"/>
    <path d="m114.34,147.73c-1.06,0-2.38.46-2.59-.87-.23-1.44,1.18-1.73,2.23-1.87,1.57-.21,3.22-1.1,4.72.13.21.17.23.92.03,1.18-1.13,1.56-2.94,1.15-4.39,1.43Z"/>
    <path d="m97.83,150.63c-.08.81-.52,1.46-1.16,1.55-1.95.26-3.52,2.04-5.64,1.46-.58-.16-.88-.89-.57-1.36,1.27-1.93,3.66-1.75,5.47-2.71.78-.41,1.78-.11,1.9,1.06Z"/>
    <path d="m52.34,179.82c.05.98-4.08,5.07-4.95,4.96-.99-.12-1.47-.94-.95-1.61,1.18-1.55,2.51-3.03,4.01-4.27.78-.65,1.63-.03,1.9.92Z"/>
    <path d="m59.97,172.2c.06,1.19-4.08,5.06-5.1,4.83-.94-.21-1.46-1.07-.89-1.71,1.31-1.46,2.81-2.79,4.39-3.98.73-.55,1.46-.03,1.59.86Z"/>
    <path d="m77.94,159.87c-.1.94-5.18,4.09-5.99,3.71-.83-.39-1.24-1.29-.58-1.89,1.55-1.41,3.32-2.61,5.41-3.04.77-.16,1.14.51,1.15,1.22Z"/>
    <path d="m63.67,169.75c-.85-.03-1.39-.15-1.65-.73-.21-.47-.03-.88.35-1.17,1.5-1.12,3-2.25,4.56-3.29.48-.32,1.16-.11,1.47.38.18.3.21.93,0,1.2-1.29,1.71-3.05,2.8-4.73,3.61Z"/>
    <path d="m33.32,207.02c-.32,1.82-1.56,3.39-2.59,5.05-.14.22-.81.29-1.15.18-.59-.2-.77-.82-.62-1.36.49-1.81,1.27-3.49,2.38-5.01.34-.46.77-.83,1.37-.45.51.32.67.83.61,1.61Z"/>
    <path d="m39.06,197.14c-1.06,1.86-1.91,3.96-3.65,5.33-.69.54-2.03.1-1.68-1.1.57-2.01,1.71-3.85,3.3-5.21.73-.62,1.67-.18,2.03.98Z"/>
    <path d="m45.04,188.34c-.82,1.85-2.01,3.53-3.78,4.74-.27.18-.89.09-1.2-.11-.5-.32-.69-.98-.32-1.46,1.12-1.5,2.19-3.08,3.55-4.35,1.02-.95,1.48.09,1.76,1.18Z"/>
    <path d="m87.76,155.03c-.88,1.42-2.65,1.82-4.14,2.56-.98.49-2.1.81-3.04-.14-.33-.33-.26-.89.16-1.15,1.84-1.16,3.62-2.48,5.91-2.57.58-.02.98.41,1.11,1.31Z"/>
  </g>
  <text class="cls-2" transform="translate(136.09 134.98)"><tspan x="0" y="0">Q</tspan></text>
  <text class="cls-2" transform="translate(139.32 246.29)"><tspan x="0" y="0">M</tspan></text>
  <text class="cls-2" transform="translate(250.17 246.29)"><tspan x="0" y="0">O</tspan></text>
  <text class="cls-2" transform="translate(0 253.17)"><tspan x="0" y="0">P</tspan></text>
  <text class="cls-2" transform="translate(153.45 385.76)"><tspan x="0" y="0">R</tspan></text>
  <text class="cls-3" transform="translate(160.13 17.17)"><tspan x="0" y="0">4 cm</tspan></text>
  <text class="cls-3" transform="translate(335.99 276.82)"><tspan x="0" y="0">6 cm</tspan></text>
  <rect class="cls-1" x="152.52" y="149.16" width="15.21" height="15.21" transform="translate(-63.95 159.14) rotate(-45)"/>
  <rect class="cls-1" x="152.52" y="344.39" width="15.21" height="15.21" transform="translate(-202 216.32) rotate(-45)"/>
</svg>