<?xml version="1.0" encoding="UTF-8"?>
<svg id="Layer_1" data-name="Layer 1" xmlns="http://www.w3.org/2000/svg" viewBox="0 0 391.28 410.3">
  <defs>
    <style>
      .cls-1 {
        font-family: Lato-Black, Lato;
        font-weight: 800;
      }

      .cls-1, .cls-2 {
        font-size: 20px;
      }

      .cls-1, .cls-2, .cls-3 {
        fill: #231f20;
      }

      .cls-2 {
        font-family: Lato-Regular, Lato;
      }
    </style>
  </defs>
  <g>
    <path d="m194.79,390.7c-58.75,0-117.49-.01-176.24.04-3.34,0-5.5-.32-5.49-4.62.11-50.83.09-101.67.07-152.51-.02-50.84-.11-101.68-.13-152.52,0-16.21.75-32.42.08-48.62-.12-2.92,1.58-3.44,3.84-3.48,8.18-.14,16.37-.28,24.55-.37,36.38-.4,72.77.17,109.16-.39,34.33-.52,68.67-.07,103-.11,25.86-.03,51.72-.42,77.57-.13,13.74.16,27.46-.11,41.19-.42,3.51-.08,4.88.72,5,4.85.57,20.01-.03,40.02-.02,60.02.02,30.67-.19,61.34.03,92.02.28,40.01-.24,80.03-.29,120.05-.04,26.28.13,52.57.22,78.85,0,.87.07,1.76.27,2.61.77,3.34-.71,4.51-3.92,4.5-11.98-.05-23.97,0-35.95,0-47.64,0-95.28,0-142.92,0,0,.08,0,.16,0,.24Zm-53.57-49.87c14.12-.19,28.25-.49,42.37-.54,8.82-.03,9.87-1.12,8.41-9.79-.33-1.93-1.21-2.9-3.11-2.93-8.39-.11-16.79-.15-25.18-.33-3.85-.08-5.38,1.34-4.4,5.3.45,1.82.39,3.83-.73,6.35-1.13-3.23-.38-5.73-.78-8.13-.46-2.75-2.08-5.47-4.89-3.76-5.3,3.23-10.29,7.17-11.55,13.94-1.8-.36-3.09.72-4.32,1.68-5.04,3.93-10.03,7.93-15.02,11.92-.58.46-1,1.05-.58,2.2,5.46.5,11.03,1.1,16.71.21,2.53-.4,3.61-1.58,3.54-3.96-.11-4.06-.31-8.11-.47-12.17ZM18.21,218.93c0,31.26.09,62.52-.03,93.78-.08,22.92.71,45.86-1.13,68.75-.25,3.08,1.65,3.8,4.11,3.69,5.39-.25,10.84-.25,16.16-1.04,12.99-1.93,25.5-6.01,38.22-9.14,5.89-1.45,11.08-4.27,16.29-6.87,7.38-3.69,14.56-7.88,21.7-12.09,9.21-5.43,17.15-12.13,24.55-19.52,13.77-13.75,25.83-28.87,35.02-46.16,6.66-12.52,12.28-25.48,15.1-39.39,2.02-9.96,4.57-19.92,4.02-30.27-.11-2.08-.19-3.73-2.01-5.38-2.91-2.64-2.53-7.89.43-11.02,1.49-1.57,1.53-3.36,1.48-5.28-.56-20.96-5.23-40.95-13.75-60.11-7.72-17.35-18.01-32.95-30.79-46.96-3.53-3.87-6.34-8.32-10.53-11.66-11.02-8.8-22.02-17.47-34.67-24.04-9.28-4.82-18.1-10.21-28.45-12.83-10.11-2.56-19.92-6.42-30.3-7.85-6.49-.89-13.1-1.03-19.65-1.45-5.38-.35-6.36.68-6.22,6.19.17,6.81.45,13.62.45,20.43.04,52.74.02,105.47,0,158.21Zm354.22-71.83c-.19,0-.37,0-.56,0,0-30.08,0-60.16,0-90.25,0-7.01-.04-14.02.06-21.03.03-1.92-.4-3.22-2.55-3.08-9.74.63-19.6.25-29.16,2.52-9.34,2.21-18.26,5.9-27.66,7.99-12.17,2.71-22.85,9.35-32.66,16.26-14.82,10.45-29.76,21.23-41.19,35.76-3.69,4.69-6.63,9.96-10.85,14.27-2.68,2.73-4.55,6.03-6.32,9.41-6.52,12.43-11.93,25.32-16.4,38.61-4.54,13.51-6.76,27.44-7.22,41.68-.07,2.03.32,3.83,1.86,5.15,3.08,2.62,3.09,5.99.81,8.52-3.06,3.39-2.65,6.92-2.45,10.85.78,15.87,4.33,31.11,9.59,46.04,1.42,4.03,4.13,7.5,5.17,11.49,1.65,6.32,5.57,11.43,8.25,17.15,2.8,5.97,7.26,11.18,11.44,16.46,10.93,13.82,23.35,26.08,37.44,36.6,8.76,6.54,18.28,12,28.11,16.76,9.72,4.7,20.21,7.32,30.64,10.01,13.01,3.35,26.12,5.96,39.68,5.54,2.51-.08,3.77-.37,3.5-3.33-.29-3.18-.01-6.42,0-9.63.07-36.78-.31-73.56.41-110.35.26-13.39,0-26.83.06-40.25.08-24.38.02-48.76.02-73.15Zm-153.03,229.13c6.3-4.73,4.21-10.55,4.13-15.89-.03-1.9-1.65-2.06-3.23-2.05-7.6.05-15.19.08-22.79.04-2.3-.01-3.74.82-3.63,3.26.17,3.93-.67,7.88.32,11.79.23.93,1.05,1.97-.12,2.75-.4.27-1.17.3-1.64.11-1.41-.58-1.23-1.84-.97-3,.82-3.6.71-7.25.64-10.9-.06-2.71-1.18-3.98-3.99-3.93-8.47.14-16.94.27-25.41.19-2.85-.03-3.5,1.17-3.36,3.69.23,4.07-.07,8.17.71,12.21.27,1.42-.35,2.44-1.73,2.46-2,.03-1.28-1.35-1.06-2.49.69-3.47.3-6.98.21-10.48-.15-5.62-.2-5.12-5.87-5.74-11.01-1.2-21.78,3.96-32.81.94-.61-.17-1.41.29-2.11.48-8.18,2.21-14.55,7.96-22.13,11.34-1.2.53-2.21,1.71-1.99,3.15.24,1.56,1.79,1.82,3.04,2.03,3.92.65,7.86.24,11.8.13,10.15-.28,20.29-.61,30.59.08-.76,2.66-2.64,1.87-4.08,1.87-6.57,0-13.15-.1-19.72-.12-2.43,0-4.37.6-4.23,3.67.14,2.92,1.54,4.06,4.49,3.95,5.99-.21,11.98-.18,17.97-.23q8.18-.06,8.88-8.31c.01-.14-.06-.29-.05-.43.06-1.3.93-1.74,2.04-1.8,1.53-.09,1.55.79,1.33,2-.26,1.43-.17,2.92-.47,4.33-.65,3.03.32,4.33,3.56,4.24,6.28-.17,12.57-.02,18.85-.13,8.72-.14,8.86,1.33,8.35-8.42-.06-1.1-.51-2.64,1.32-2.57,1.47.06,2.36,1.06,2.11,2.7-.15,1.01-.33,2.02-.45,3.03-.42,3.5.55,5.45,4.68,5.3,7.73-.28,15.48-.22,23.23-.15,3.09.03,3.92-1.31,3.97-4.27.07-3.35-2.76-4.3-4.92-6.42,4.04-.59,7.34-.4,11.07.57-.81.61-1.12.96-1.5,1.1-3.06,1.13-3.77,3.37-3.13,6.33.65,2.98,3,2.75,5.18,2.76,6.43.04,12.86.09,19.29.03,4.94-.05,5.53-1.01,4.76-5.79-.48-2.98-2.24-3.62-4.85-3.92-5.1-.59-10.1,1.22-16.28.51Zm33.76-1.8c-1.99,1.61-4.04,1.84-6.21,1.6-2.25-.24-3.85.65-3.53,3.18.29,2.31-1.26,5.86,3.04,5.97,8.17.2,16.35.18,24.53.25,1.96.02,3.2-.74,2.52-2.91-.8-2.54.36-5.56-3.13-8.2,6.99.96,12.75-.32,18.55.03.99.06,2.15.25,2.76-.81.71-1.22.03-2.41-.77-3.18-7.86-7.48-16.91-12.33-28.08-12.32-1.97,0-2.88.66-2.62,2.89.49,4.34-.46,8.74.4,13.08.17.86.59,1.87-.49,2.24-.75.26-1.74.17-2.53-.06-1.47-.43-.89-1.55-.62-2.52,1.06-3.86.59-7.84.9-11.75.21-2.75-.99-3.61-3.56-3.6-8.47.04-16.94,0-25.4-.06-2.62-.02-3.93,1.09-3.35,3.75.64,2.91.56,5.83.17,8.71-.42,3.08.33,3.99,3.72,3.83,7.89-.38,15.8-.12,23.71-.12ZM154.33,63.08c4.78-1.13,8.5-.32,12.19-.21,7.92.25,7.91.28,8.41-7.53.06-.87.12-1.76.35-2.6.78-2.89-.33-4.05-3.27-4-5.4.1-10.8-.03-16.2.1-3.6.09-8.32-1.9-10.47.26-2.33,2.34-1.16,7.18-1.07,10.92.09,3.79-.94,5.79-5.17,5.49-2.29-.16-4.63.5-6.96.63-1.88.11-2.72.69-2.03,2.72,1.32,3.89,9.26,10.09,13.22,9.64,9.84-1.11,19.68-.57,29.53-.45,4.22.05,8.48-.43,12.67-.03,6.03.57,7.07-.2,6.51-6.43-.1-1.16-.55-2.3-.54-3.45,0-2.95-1.54-3.61-4.21-3.58-5.67.06-11.3.53-17,.33-9.91-.35-9.92-.02-10.89,9.96-.02.16-.36.3-.68.55-2.13-3.82,1.83-9.25-4.38-12.32Zm120.96-8.63c-1.68-2.5.41-6.51-4.31-6.32-5.97.25-11.97-.14-17.95-.04-10.42.17-10.35.23-9.66,10.78.18,2.76,1.31,3.97,4.03,3.97,3.21,0,6.62-.54,9.58.36,6.69,2.03,11.52-1.32,16.56-4.56,4.03-2.59,7.84-5.73,12.2-7.56,4.11-1.73,5.55-4.32,5.55-8.34,0-2.04-.17-4.11.09-6.13.35-2.74-.65-3.59-3.35-3.53-6.13.14-12.28-.07-18.41,0-11,.12-9.06-1.13-9.39,9.75-.09,2.86.86,3.75,3.81,3.65,7.25-.24,14.51-.08,22.5-.08-4.21,2.84-12.46-1.87-11.24,8.04Zm-50.07,25.36c-1.31.06-2.64.25-3.94.15-12.41-.94-9.72,1.05-10.14,10.02-.18,3.85,1.44,4.86,4.88,4.7,4.81-.23,9.67-.68,14.42-.18,3.83.4,6.65-.93,8-3.88,3.04-6.64,8.29-10.84,14.14-14.63,2.24-1.45,4.07-3.45,4.78-6.08.6-2.24.65-4.37-2.69-4.64-8.46-.67-16.91-.36-25.37-.07-1.8.06-2.64.76-2.85,2.53-.92,7.94.54,9.82,8.23,10.48,1.89.16,3.78.34,5.66.62.97.14,2.78-.58,2.53,1.26-.22,1.6-1.78,1.11-2.88.76-4.84-1.54-9.82-1.02-14.77-1.04Zm-97.59-36.15c-.43,0-.85.01-1.28.02-.1-1.93-.41-3.87-.24-5.78.27-3.07-.87-4.12-3.96-4.02-7,.21-14.02.12-21.03.14-6.63.01-6.81.17-7.44,6.65-.07.73-.08,1.46-.17,2.18-.37,2.89.86,3.81,3.76,3.78,17.33-.18,34.66-.18,51.99-.27,8.74-.05,8.59-.08,8.88-8.82.11-3.25-.82-4.56-4.09-4.42-8.02.34-16.05.6-24.07.78-1.99.04-2.47.87-2.38,2.68.13,2.35.03,4.72.03,7.08Zm65.62,197.7c-.59,4.4-.66,8.04-1.64,11.42-1.22,4.2-.93,6.73,4.2,6.75.85,0,2.11.27,2.03,2.08-2.3.44-4.41,1.85-7,1.67-2.65-.18-4.1,1.03-4.22,3.77-.29,6.59-2.92,12.29-6.67,17.6-.91,1.28-1.29,2.93-2.04,4.34-1.42,2.68-.59,3.65,2.34,3.63,7.44-.06,14.87.09,22.31.05,6.83-.04,7.31-.63,6.54-7.13-.7-5.91-2.9-7.95-8.65-7.97-3.7-.02-7.41,0-11.11,0,3.59-3.82,1.17-8.43,2.78-12.63,1.5,2.33,1.12,4.35,1.27,6.28.15,1.91.36,4.04,2.56,4.6,3.08.78,6.52.23,8.67-1.65,1.64-1.43-.03-4.35-.97-6.49-.18-.4-.28-.86-.55-1.18-3.25-3.9-3.83-8.66-4.14-13.43-.29-4.43-2.54-7.74-5.72-11.71Zm4.71-128.05c-5.52.49-11.06-.75-16.57.26-1.44.26-3.35.32-3.42,2.07-.15,3.74-1.16,7.52.02,11.26.4,1.28.93,2.53,2.67,2.3,7.69-1,15.4.38,23.09-.25,3.27-.27,6.92-.51,9.18-2.89,2.56-2.69,4.31-6.19,6.22-9.45,1.54-2.63.89-4.26-2.47-3.74-6.23.98-12.48.3-18.72.44Zm-4.53-18.63v-.12c2.33,0,4.67-.03,7,0q8.85.15,9.21-8.39c.03-.73,0-1.46.09-2.19.3-2.5-.6-3.88-3.3-3.94-6.11-.13-12.23-.58-18.34-.47-11.08.21-11.01.33-10.18,11.49.19,2.57,1.09,3.69,3.7,3.63,3.94-.1,7.88-.03,11.82-.03Zm-1.44-31.58c3.92,0,7.84.02,11.76,0,3.89-.03,5.92-2.01,6.04-5.9.05-1.74-.04-3.49.04-5.23.11-2.39-1.01-3.09-3.33-3.49-5.84-1-11.59.58-17.41.08-10.76-.92-11.46-.1-11.12,10.55.1,3.1,1.13,4.42,4.47,4.06,3.15-.35,6.38-.07,9.57-.07Zm1.74,247.84s0-.08,0-.12c-4.36,0-8.73-.04-13.09.02-1.6.02-3.35-.01-3.19,2.46.21,3.34.32,6.68.5,10.02.09,1.72.83,2.76,2.77,2.43,6.51-1.14,13.06-.22,19.6-.39,9.96-.26,9.97-.12,9.58-10.22-.01-.29-.06-.58-.04-.87.17-2.49-1.16-3.36-3.46-3.34-4.22.04-8.43.01-12.65.01Zm-23.4-198.52c1.31-.71,1.55-.96,1.8-.96,4.95-.08,9.91-.41,14.84-.12,3.87.23,5.13-1.2,5.24-4.91.27-9.15.18-9.39-8.95-9.4-6.27,0-12.55-.05-18.82.08-1.69.04-3.72.31-4.63,1.9-.98,1.69.63,3,1.6,4.19,4.22,5.19,8.33,10.44,11.5,16.36.47.88.86,2.23,2.33,2.01,1.04-4.17.24-7.49-4.91-9.15Zm-69.64-63.47c1.07,1.75,2.52,2.56,3.62,2.25,4-1.12,5.34,1.2,6.52,4.24.34.87,1.26,1.66,2.11,2.17,5.24,3.18,10.55,6.08,16.91,6.58,11.76.93,12.39.35,12.09-11.43-.08-3.07-1.11-3.95-4.11-4-11.72-.2-23.45.84-35.16-.27-.52-.05-1.07.24-1.98.46Zm130.54,13.82c1.31,0,2.63.08,3.94-.02,2.15-.15,4.87.12,5.44-2.6.74-3.52,1.03-7.19.18-10.77-.22-.91-1.45-.87-2.31-.88-8-.14-16-.3-24-.35-2.26-.01-3.8,1.3-3.22,3.63.91,3.66-2.39,8.3,2.51,11.01.35.19.87.15,1.3.11,5.39-.53,10.78-.08,16.16-.13Zm-56.28-29.34c0-.07,0-.13,0-.2-2.62,0-5.24-.03-7.85,0-7.61.09-7.36.12-7.79,7.75-.22,4,1.45,5.2,4.92,5.23,7.56.06,15.13-.05,22.68.26,4.13.17,5.54-1.58,5.23-5.39-.09-1.16-.19-2.34-.07-3.48.32-3.05-1.14-4.22-4.03-4.19-4.36.05-8.72.01-13.09.01Zm33.92,63.47c0,.07,0,.15,0,.22-1.31,0-2.62.01-3.93,0-11.6-.13-11.54-.13-11.05,11.32.11,2.45.93,3.29,3.4,3.19,7.12-.28,14.24-.43,21.37-.45,2.41,0,3.84-.98,4.66-3.12.91-2.38.78-4.79.53-7.3-.3-2.93-1.57-4.06-4.5-3.91-3.48.18-6.98.04-10.48.04Zm32.16,252.2c0-5.84,0-5.97-5.84-6.12-5.23-.14-10.46.08-15.69.07-9.05-.02-9.02-.04-9.03,8.97,0,3.05,1.41,4.64,4.44,4.67,6.24.07,12.48.28,18.71.08,7.42-.24,7.42-.4,7.41-7.68Zm.45-302.7s0-.03,0-.05c2.92,0,5.83-.02,8.75,0q7.57.08,7.27-7.42c-.02-.44-.14-.88-.09-1.31.35-3.49-1.43-4.57-4.67-4.5-5.83.12-11.66,0-17.49,0-9.63,0-9.53,0-9.15,9.55.12,2.94,1.35,3.81,4.02,3.74,3.79-.1,7.58-.02,11.37-.02Zm-80.05,33.11c-4.8-.05-9.6-.16-14.37.66-1.7.29-2.84.71-2.25,2.74,1.42,4.9,10.51,11.9,15.77,12,3.64.07,7.27-.05,10.91-.09,1.86-.02,4.56.28,3.8-2.57-1.09-4.1,3.34-9.43-2.55-12.32-1.33-.65-3.15-.37-4.75-.42-2.18-.06-4.37-.01-6.55-.01Zm47.54-.95s0,.07,0,.1c2.18-.1,4.37-.15,6.55-.29,9.01-.6,8.89-.6,8.37-9.65-.19-3.29-1.54-4.23-4.64-4.08-5.96.29-11.94.55-17.89.36-6.66-.21-7.85.7-7.44,7.2.05.87.38,1.76.27,2.6-.38,3.04,1.24,3.82,3.87,3.77,3.64-.06,7.28-.02,10.92-.02Zm-49.47,264.53c0-.09,0-.18,0-.28-4.2,0-8.41.09-12.61-.05-1.44-.05-2.38.34-2.48,1.7-.23,3.03-.39,6.08-.35,9.12.03,2.14,1.64,2.29,3.41,2.31,7.99.08,15.98.23,23.98.42,2.25.05,3.94-.71,3.71-3.12-.32-3.38,1.77-7.25-1.73-10.02-.45-.36-1.41-.09-2.14-.09-3.93,0-7.85,0-11.78,0ZM209.09,46.41s0-.05,0-.08c2.04,0,4.08-.01,6.12,0,9.09.06,8.96.06,8.76-9.17-.06-2.95-1.23-3.86-3.87-3.86-5.54-.01-11.07-.15-16.61-.15-9.75,0-9.68.03-9.53,9.83.04,2.48.97,3.45,3.33,3.43,3.93-.03,7.87,0,11.8,0Zm-16.36,296.72c-1.58,0-3.63-.01-5.67,0-9.61.07-9.55.07-9.17,9.61.11,2.69,1.24,3.61,3.81,3.46,5.68-.33,11.34-.35,17.04.22,9.24.92,10.55-.64,10.4-9.8-.04-2.48-.89-3.42-3.24-3.51-4.23-.17-8.46-.49-13.16.03Zm15.89-2.44c0-.16,0-.32,0-.48,2.62,0,5.24-.03,7.86,0q7.33.11,7.26-7.28c0-.29-.03-.58,0-.87.35-4.08-1.98-5.91-5.55-5.24-5.39,1.01-10.74.31-16.1.56-9.05.43-8.99.48-8.51,9.73.14,2.75,1.27,3.59,3.69,3.58,3.78-.02,7.57,0,11.35,0Zm-4.12-45.56q-11.19.05-10.73,10.35c.01.29-.03.58-.03.87,0,1.03.6,1.77,1.53,1.81,7.96.35,15.94,2,23.88-.34,2.02-.59,1.87-1.71,1.4-3.33-1.71-5.93-6.33-9.44-12.55-9.39-1.17,0-2.33,0-3.5.01Zm86.61,90.24s0,.02,0,.04c3.79,0,7.58,0,11.37,0,2.16,0,4.57.54,4.62-2.93.04-2.86.37-5.61-3.73-6.02-7.96-.8-15.91-.4-23.87-.27-.43,0-.89.1-1.28.27-3.32,1.48-2.45,4.76-2.66,7.26-.19,2.31,2.29,1.59,3.74,1.62,3.93.09,7.87.03,11.81.03Zm-110.2-76.59c0-.08,0-.16,0-.24,2.04,0,4.1-.16,6.13.03,3.96.37,5.43-1.16,5.37-5.24-.13-8.17.07-8.17-7.95-8.23-.73,0-1.46,0-2.19,0-7.98-.03-9.64,1.16-12.81,8.41-1.34,3.08-.91,4.72,2.7,4.87,2.91.12,5.83.27,8.74.41Zm30.5,9.37s-.07,0-.1,0c0,1.45.07,2.91-.02,4.36-.12,2.16.79,3.4,3,3.29,5.8-.29,11.6-.65,17.4-1.03,2.78-.18,2.76-1.77,1.43-3.52-2.82-3.72-5.93-7.16-9.84-9.8-3.6-2.42-7.52-1.37-10.89-.1-2.51.95-.5,4.2-.97,6.36-.03.14,0,.29,0,.44Zm-17.31-140.55c1.13.14,1.38-.44,1.54-.98,2.72-9.17,4.24-18.68,7.79-27.63.69-1.74-.42-2.28-2.09-2.2-2.62.11-5.24.14-7.86.11-7.02-.07-7.01-.09-5.38,6.44.39,1.55.73,3.12.99,4.7.31,1.91,1.08,3.41,3.22,3.49,2.95.11,2.74,1.72,2.13,3.83-1.18,4.08-.76,8.2-.34,12.24Zm50.59,162.35c.5-1,4.89,1.88,3.14-1.23-2.17-3.87-4.45-8.7-9.42-10.34-8.21-2.71-12.96-2.9-13.23,8.23-.09,3.53,1.12,4.41,4.17,4.06,4.91-.56,9.87.38,15.34-.72Zm-79.47-14.33c11.15-.12,10.1,1.77,10.11-9.76,0-.29-.04-.59.02-.87.78-3.72-1.42-4.51-4.43-4.62-1.66-.06-3.19.34-4.63,1.09-5,2.59-8.03,7.11-11.13,11.52-1.02,1.45-.47,2.37,1.34,2.68,2.92.5,5.82.03,8.73-.03Zm94.19,30.95c2.07-.21,3.66-.38,5.25-.54,1.01-.1,2.19-.04,2.41-1.36.15-.91-.39-1.81-1.14-2.21-4.03-2.14-7-5.66-10.72-8.17-3.21-2.17-7.1-2.46-10.44-.92-3.19,1.47-1.13,4.95-1.42,7.53-.1.85.1,1.74.12,2.61.05,2.22,1.32,3.29,3.38,2.97,4.36-.66,8.7-.26,12.57.08ZM324.15,34.55c-7.34-1.73-14.63-1.59-21.92-1.5-10.91.13-8.56-1.14-8.56,9.19,0,.29.04.58.04.88,0,2.57,1.28,2.91,3.41,2.09,8.42-3.26,16.41-7.81,25.64-8.72.62-.06,1.31-.6,1.39-1.94ZM92.99,385.47s0,.04,0,.06c3.64,0,7.29-.12,10.93.04,2.85.12,3.81-1,3.85-3.83.04-3.1-1.45-3.61-4.06-3.55-5.68.13-11.37.16-17.05.02-2.05-.05-4.07-.31-6.05.38-2.01.69-2.5,2.14-2.18,4.16.3,1.92,1.22,2.79,3.19,2.75,3.79-.07,7.58-.02,11.37-.02Zm101.26-246.93c1,1.39-1.41,3.56.24,5.29,1.9,1.99,10.83.46,12.06-2.01,1.35-2.72,2.53-5.53,3.77-8.31.83-1.87.55-3.12-1.83-3.08-3.91.08-7.83.16-11.74.27-2.2.07-3.09,1.25-2.83,3.42.16,1.3.2,2.6.33,4.43ZM92.15,38.47c-.24-1.56.91-4.28-2.05-4.27-8.15.02-16.3.39-24.44.65-.9.03-1.8.39-1.71,1.52.07.93,1,1.1,1.67,1.05,7.45-.51,13.73,3.38,20.45,5.5,5.45,1.72,5.9,1.6,6.08-4.44Zm100.16,99.41c-1.02-2.26,1.33-5.96-2.32-7.12-3.14-1-7.11-1.46-9.62.76-2.15,1.9.98,4.34,1.63,6.57.24.82.64,1.63,1.1,2.35,1.63,2.57,3.62,4.76,7.05,3.85,3.72-.99,1.33-4.16,2.16-6.42Zm126.8,247.58c0-.12,0-.25,0-.37,2.18,0,4.36.1,6.52-.04,1.04-.07,2.74.22,2.87-1.19.15-1.61-1.56-2.03-2.79-2.14-4.23-.37-8.16-1.31-11.78-3.77-1.54-1.05-3.2-.59-3.8,1.89-1.06,4.42-.37,5.53,4.19,5.61,1.6.03,3.19,0,4.79,0Zm-262.37-1.04c5.67,1.46,11.46.96,17.2.99,2.2,0,2.42-1.76,2.19-3.48-.28-2.05-1.58-2.81-3.43-2.02-5.11,2.19-10.73,2.36-15.96,4.51ZM230.94,96.78c-1.98.62-4.55-1.05-5.74,1.57-.37.81-.07,2.46,1.06,2.46,2.32,0,3.69-1.75,4.69-4.03Z"/>
    <path d="m125.96,378.23c-1.43-6.28-1.35-12.63-.28-21.19,1.64,8.34,1.1,14.74.28,21.19Z"/>
  </g>
  <text class="cls-2" transform="translate(175.88 17.17)"><tspan x="0" y="0">7 cm</tspan></text>
  <text class="cls-1" transform="translate(207.23 217.16)"><tspan x="0" y="0">P</tspan></text>
  <text class="cls-1" transform="translate(0 406.73)"><tspan x="0" y="0">A</tspan></text>
  <text class="cls-1" transform="translate(377.78 406.7)"><tspan x="0" y="0">B</tspan></text>
  <text class="cls-1" transform="translate(378.14 27.73)"><tspan x="0" y="0">C</tspan></text>
  <text class="cls-1" transform="translate(0 27.89)"><tspan x="0" y="0">D</tspan></text>
  <polygon class="cls-3" points="86.99 379.13 291.68 375.06 291.68 372.79 86.99 375.96 86.99 379.13"/>
</svg>