<?xml version="1.0" encoding="UTF-8"?>
<svg id="Layer_1" data-name="Layer 1" xmlns="http://www.w3.org/2000/svg" viewBox="0 0 292.94 342.21">
  <defs>
    <style>
      .cls-1 {
        fill: #a7a9ac;
      }

      .cls-2 {
        font-family: Lato-Black, Lato;
        font-weight: 800;
      }

      .cls-2, .cls-3 {
        fill: #231f20;
        font-size: 20px;
      }

      .cls-3 {
        font-family: Lato-Regular, Lato;
      }
    </style>
  </defs>
  <g>
    <path d="m233.71,294.65c-8.65-21.85-17.19-43.74-25.76-65.63-10.66-27.22-21.31-54.45-31.96-81.68l-38.43-98.22c-3.26-8.34-6.54-16.68-9.81-25.01-.16,0-.32.01-.49.01-.94,2.5-1.86,5-2.84,7.49-10.29,26.23-20.62,52.44-30.89,78.68-12.67,32.4-25.29,64.81-37.95,97.21-11.38,29.15-22.79,58.29-34.21,87.43-1.03,2.61-1.18,5.17-.4,7.86,1.19,4.1,3.26,7.68,6.08,10.84,5,5.58,11.22,9.47,17.85,12.71,17.33,8.47,35.91,12.31,54.87,14.49,15.17,1.74,30.42,1.64,45.65.79,15.63-.88,31-3.43,46-7.96,11.29-3.42,22.14-7.87,31.56-15.24,4.85-3.79,8.74-8.34,10.75-14.3,1.06-3.14,1.27-6.21-.02-9.47ZM97.07,111.22c9.85-25.2,19.67-50.41,29.5-75.62.26-.69.61-1.34,1.04-2.27,6.32,16.15,12.53,32,18.73,47.85,3.93,10.04,7.81,20.1,11.77,30.13.37.94.29,1.5-.52,2.04-18.92,12.67-40.27,14.55-59.85.4-1-.73-1.11-1.4-.67-2.53Zm-33.69,85.88c5.5-14.05,11.01-28.09,16.51-42.14,4.73-12.07,9.46-24.15,14.21-36.22.94-2.39.91-2.29,3.03-.87,7.56,5.1,15.86,8.26,24.96,9.04,13.24,1.14,25.18-2.72,36.19-9.86,1.43-.92,1.85-.76,2.44.75,7.37,19,14.79,37.99,22.21,56.98,2.96,7.54,5.92,15.09,8.93,22.61.45,1.12.36,1.64-.85,2.09-10.04,3.72-20.34,6.44-30.89,8.27-4.06.71-8.16.78-12.18,1.52-6.06,1.11-12.15.46-18.54.71-2.92,0-6.16.13-9.38-.03-7.51-.36-14.96-1.22-22.39-2.38-11.38-1.79-22.5-4.53-33.45-8.07-1.7-.55-1.19-1.41-.8-2.4Zm165.67,108.93c-3.33,5.88-8.32,10.05-13.97,13.49-11.34,6.92-23.79,10.91-36.63,13.8-12.34,2.78-24.83,4.38-37.46,4.96-4.35.2-8.7.48-13.06.42-15.45-.04-30.79-1.3-45.97-4.24-12.91-2.5-25.49-6.1-37.21-12.25-6.54-3.43-12.67-7.46-17.11-13.59-1.33-1.83-2.36-3.82-3.04-5.98-.7-2.21-.7-4.37.17-6.59,6.36-16.13,12.66-32.27,18.98-48.41,5.64-14.4,11.29-28.8,16.86-43.22.46-1.21.89-1.34,2.01-1.01,7.15,2.08,14.24,4.43,21.56,5.87,8.15,1.61,16.32,3.04,24.63,3.83,7.68.74,15.34,1.45,23.05,1.33,6.33-.09,12.63-.64,18.95-1.33,7.74-.84,15.36-2.2,22.91-3.96,6.23-1.45,12.33-3.4,18.33-5.63,1.4-.52,2.07-.3,2.64,1.17,11.7,30.1,23.4,60.21,35.23,90.25,1.58,4.01,1.13,7.55-.87,11.09Z"/>
    <path class="cls-1" d="m229.05,306.03c-3.33,5.88-8.32,10.05-13.97,13.49-11.34,6.92-23.79,10.91-36.63,13.8-12.34,2.78-24.83,4.38-37.46,4.96-4.35.2-8.7.48-13.06.42-15.45-.04-30.79-1.3-45.97-4.24-12.91-2.5-25.49-6.1-37.21-12.25-6.54-3.43-12.67-7.46-17.11-13.59-1.33-1.83-2.36-3.82-3.04-5.98-.7-2.21-.7-4.37.17-6.59,6.36-16.13,12.66-32.27,18.98-48.41,5.64-14.4,11.29-28.8,16.86-43.22.46-1.21.89-1.34,2.01-1.01,7.15,2.08,14.24,4.43,21.56,5.87,8.15,1.61,16.32,3.04,24.63,3.83,7.68.74,15.34,1.45,23.05,1.33,6.33-.09,12.63-.64,18.95-1.33,7.74-.84,15.36-2.2,22.91-3.96,6.23-1.45,12.33-3.4,18.33-5.63,1.4-.52,2.07-.3,2.64,1.17,11.7,30.1,23.4,60.21,35.23,90.25,1.58,4.01,1.13,7.55-.87,11.09Z"/>
    <path d="m272.78,270.4c.87,6.54.63,12.85.57,19.72-2.28-2.13-4.15-3.91-6.05-5.66-2.42-2.25-4.87-4.47-7.29-6.71-.31-.28-.82-.51-.64-1.03.19-.56.73-.3,1.14-.33,1.57-.11,3.76.76,4.54-.42.67-1-.87-2.79-1.45-4.21-6.71-16.52-13.47-33.02-20.21-49.53-12.24-29.96-24.47-59.91-36.71-89.87-12.64-30.93-25.29-61.87-37.93-92.8q-1.17-2.85-3.38-.58c-.64.66-1.26,1.34-2.19,2.33-.25-6.77.15-13.16-.61-20.07,5.3,4.5,9.88,8.98,14.73,13.51-1.74.51-3.3.33-4.8.23-1.61-.11-1.8.27-1.21,1.72,6.04,14.64,12.04,29.29,18.04,43.95,10.97,26.84,21.92,53.68,32.89,80.52,13.19,32.26,26.4,64.51,39.59,96.76,2.13,5.19,4.29,10.37,6.34,15.6.49,1.26.95,1.12,1.65.33.95-1.06,1.85-2.15,2.96-3.44Z"/>
    <path d="m32.72,181c.39-6.21.2-12.23.76-18.2.03-.29-.06-.66.31-.81.36-.14.57.17.77.38.86.9,1.7,1.82,2.57,2.76.47.04.55-.41.67-.72,9.99-24.34,19.97-48.68,29.94-73.03,7.42-18.11,14.86-36.23,22.26-54.35.94-2.31.88-2.34-1.68-2.36-.98,0-1.95,0-2.93,0-.07-.18-.14-.36-.2-.54,4.75-4.18,9.5-8.35,14.38-12.65.41,1.08.24,2,.19,2.91-.24,5.18-.47,10.36-.7,15.54-.02.36.17.83-.31.95-.42.11-.6-.33-.84-.61-.9-1.03-1.9-1.99-2.73-3.08-.73-.96-1.08-1.02-1.57.19-5.22,12.82-10.47,25.63-15.73,38.43-11.94,29.07-23.9,58.13-35.83,87.2-.56,1.37-2.04,2.95-1.48,4.05.64,1.24,2.73.28,4.14.61.18.04.38.03.55.11.52.24,1.42-.17,1.56.65.11.65-.69.78-1.1,1.13-3.6,3.18-7.19,6.37-10.78,9.54-.73.64-1.49,1.25-2.24,1.88Z"/>
  </g>
  <text class="cls-2" transform="translate(120.28 17.29)"><tspan x="0" y="0">O</tspan></text>
  <text class="cls-2" transform="translate(39.53 199.93)"><tspan x="0" y="0">C</tspan></text>
  <text class="cls-2" transform="translate(196.04 199.93)"><tspan x="0" y="0">D</tspan></text>
  <text class="cls-2" transform="translate(0 312.58)"><tspan x="0" y="0">A</tspan></text>
  <text class="cls-2" transform="translate(238.92 312.74)"><tspan x="0" y="0">B</tspan></text>
  <text class="cls-3" transform="translate(11.68 105.13)"><tspan x="0" y="0">7 cm</tspan></text>
  <text class="cls-3" transform="translate(240.12 181)"><tspan x="0" y="0">21 cm</tspan></text>
</svg>