<?xml version="1.0" encoding="UTF-8"?>
<svg id="Layer_1" data-name="Layer 1" xmlns="http://www.w3.org/2000/svg" viewBox="0 0 252.7 274.4">
  <defs>
    <style>
      .cls-1 {
        fill: #231f20;
        font-family: Lato-Black, Lato;
        font-size: 20px;
        font-weight: 800;
      }
    </style>
  </defs>
  <g>
    <path d="m.03,126.27C-1.48,61.02,52.47.45,125.36,0c72.03-.44,125.01,57.43,127.27,121.32,2.5,71.03-54.92,131.82-128.38,130.63C52.07,250.78-.94,191.35.03,126.27Zm218.99,28.04c-.25-23.76-9.19-45.67-27.22-63.66-18.05-18.01-40.16-27.11-65.63-27.11-25.26,0-47.25,9-65.18,26.79-19.82,19.67-28.9,43.76-27.33,71.56,2.57,45.46,40.08,86.19,92.87,86.54,25.22.17,47.3-9.2,65.22-27.11,17.99-17.98,27.09-39.84,27.28-67.02Zm-39.99,82.2c.08.1.16.19.23.29,2.04-.9,3.93-2.07,5.84-3.21.26-.16.51-.31.27-.65-.22-.31-.53-.22-.77-.06-1.86,1.2-3.72,2.42-5.58,3.63Zm-105.61.1c-1.92-1.07-3.56-2.54-5.44-3.64-.26-.15-.54-.27-.72.09-.13.25-.02.49.2.61,1.95,1.05,3.79,2.31,5.96,2.93Z"/>
    <path d="m126.13,162.15c-2.83-.05-5.3-2.03-5.96-4.79-.68-2.82.54-5.7,3.22-6.83,1.44-.6,1.88-1.37,1.69-2.78-.07-.52.04-1.06-.02-1.58-.1-.93.11-1.35,1.21-1.35,1.07,0,1.2.46,1.11,1.29-.02.24.02.48,0,.72-.18,1.79-.07,3.13,2.14,3.95,2.39.88,3.45,4.25,2.74,6.8-.77,2.73-3.3,4.62-6.13,4.57Z"/>
    <path d="m126.27,119.78c2.88,0,5.38,1.92,6.03,4.62.69,2.85-.51,5.84-3.22,6.96-1.6.66-1.94,1.53-1.69,2.99.16.96-.16,1.32-1.22,1.32-1.11,0-1.18-.54-1.08-1.33.19-1.46-.17-2.34-1.76-3-2.66-1.1-3.87-4.29-3.13-7.17.66-2.53,3.25-4.41,6.07-4.41Z"/>
    <path d="m127.38,168.04c0,1.1-.05,2.2.02,3.3.06.91-.2,1.23-1.17,1.23-.99,0-1.19-.35-1.17-1.24.05-2.34.06-4.69,0-7.03-.02-.89.35-1.03,1.11-.99.71.03,1.32-.06,1.24,1.01-.09,1.24-.02,2.49-.02,3.73Z"/>
    <path d="m125.08,186.26c0-1.1.05-2.2-.02-3.3-.05-.89.17-1.25,1.16-1.24.98,0,1.2.33,1.18,1.23-.06,2.34-.06,4.69,0,7.03.02.87-.33,1.05-1.1,1-.69-.04-1.34.09-1.25-1,.1-1.24.02-2.49.02-3.73Z"/>
    <path d="m127.38,204.82c0,1.24-.05,2.49.02,3.73.05.87-.42.94-1.06.87-.56-.05-1.29.28-1.27-.81.05-2.54.04-5.07,0-7.61-.02-1.09.73-.74,1.28-.8.65-.07,1.1.02,1.06.88-.06,1.24-.02,2.49-.02,3.73Z"/>
    <path d="m125.08,223.13c0-1.05.05-2.11-.01-3.16-.05-.9.07-1.35,1.19-1.36,1.2-.01,1.15.59,1.14,1.41-.03,2.25-.05,4.5.01,6.75.02.89-.24,1.14-1.13,1.13-.91,0-1.29-.21-1.22-1.19.08-1.19.02-2.39.02-3.59Z"/>
    <path d="m127.38,241.64c0,1.24-.05,2.49.02,3.73.05.94-.44.98-1.15.96-.64-.02-1.22.08-1.2-.91.06-2.48.06-4.97,0-7.45-.02-1.04.62-.83,1.22-.87.72-.05,1.19.04,1.13.96-.08,1.19-.02,2.39-.02,3.58Z"/>
  </g>
  <text class="cls-1" transform="translate(119.98 270.83)"><tspan x="0" y="0">C</tspan></text>
  <text class="cls-1" transform="translate(136.73 163.29)"><tspan x="0" y="0">B</tspan></text>
  <text class="cls-1" transform="translate(136.75 133.51)"><tspan x="0" y="0">A</tspan></text>
</svg>